<?xml version="1.0" encoding="utf-8"?>
<!-- Generator: Adobe Illustrator 27.8.1, SVG Export Plug-In . SVG Version: 6.00 Build 0)  -->
<svg version="1.1" id="Layer_1" xmlns="http://www.w3.org/2000/svg" xmlns:xlink="http://www.w3.org/1999/xlink" x="0px" y="0px"
	 width="840px" height="321px" viewBox="0 0 840 321" style="enable-background:new 0 0 840 321;" xml:space="preserve">
<style type="text/css">
	.st0{fill-rule:evenodd;clip-rule:evenodd;fill:#FFA100;}
	.st1{fill-rule:evenodd;clip-rule:evenodd;fill:#D09CE7;}
	.st2{fill-rule:evenodd;clip-rule:evenodd;fill:#2574DB;}
	.st3{fill:#FFA100;}
	.st4{fill:#D09CE7;}
	.st5{fill:#FFFFFF;}
	.st6{fill:#241F20;}
	.st7{fill-rule:evenodd;clip-rule:evenodd;fill:#FFFFFF;}
</style>
<g id="computer-telephony-integration--">
	<rect id="Rectangle" x="44" y="72" class="st0" width="358" height="204"/>
	<rect id="Rectangle-Copy" x="404" y="72" class="st1" width="360" height="204"/>
	<ellipse id="Oval-Copy-4" class="st2" cx="404" cy="169.5" rx="156" ry="130"/>
	<path id="Path-Copy" d="M156,45c-5.2,0-10.1,1.5-14.3,4c-1.5-17.9-16.4-32-34.7-32c-17,0-31.1,12.1-34.3,28.1
		c-0.2,0-0.4-0.1-0.7-0.1c-15.4,0-28,12.6-28,28s12.6,28,28,28h84c15.4,0,28-12.6,28-28S171.4,45,156,45z"/>
	<path id="Path-Copy_00000136374504415435255370000015594140458956185738_" class="st3" d="M107,15.5c18,0,33,13.1,35.8,30.6
		l0.1,0.5l0.4-0.2c3.8-1.8,7.9-2.8,12.1-2.9l0.5,0c16.3,0,29.5,13.2,29.5,29.5s-13.2,29.5-29.5,29.5H72c-16.3,0-29.5-13.2-29.5-29.5
		c0-15.9,12.7-29,28.5-29.5l0.5,0l0.1-0.2c3.9-16,18.2-27.5,34.9-27.8L107,15.5z M107,18.5c-16,0-29.7,11.4-32.8,26.9l-0.2,1.2h-1.2
		c-0.2,0-0.3,0-0.6-0.1c0,0-0.1,0-0.1,0l0,0l-0.4,0c-14.3,0.2-25.8,11.8-26.1,26.1l0,0.4c0,14.6,11.9,26.5,26.5,26.5h84
		c14.6,0,26.5-11.9,26.5-26.5S170.6,46.5,156,46.5c-4.8,0-9.4,1.3-13.5,3.8l-2.1,1.2l-0.2-2.4C138.7,31.9,124.4,18.5,107,18.5z"/>
	<path id="Path-Copy-2" d="M736,45c-5.2,0-10.1,1.5-14.3,4c-1.5-17.9-16.4-32-34.7-32c-17,0-31.1,12.1-34.3,28.1
		c-0.2,0-0.4-0.1-0.7-0.1c-15.4,0-28,12.6-28,28s12.6,28,28,28h84c15.4,0,28-12.6,28-28S751.4,45,736,45z"/>
	<path id="Path-Copy-2_00000121262902293910880570000017696720882955960212_" class="st4" d="M687,15.5c18,0,33,13.1,35.8,30.6
		l0.1,0.5l0.4-0.2c3.8-1.8,7.9-2.8,12.1-2.9l0.5,0c16.3,0,29.5,13.2,29.5,29.5s-13.2,29.5-29.5,29.5h-84
		c-16.3,0-29.5-13.2-29.5-29.5c0-15.9,12.7-29,28.5-29.5l0.5,0l0.1-0.2c3.9-16,18.2-27.5,34.9-27.8L687,15.5z M687,18.5
		c-16,0-29.7,11.4-32.8,26.9l-0.2,1.2h-1.2c-0.2,0-0.3,0-0.6-0.1c0,0-0.1,0-0.1,0l0,0l-0.4,0c-14.3,0.2-25.8,11.8-26.1,26.1l0,0.4
		c0,14.6,11.9,26.5,26.5,26.5h84c14.6,0,26.5-11.9,26.5-26.5S750.6,46.5,736,46.5c-4.8,0-9.4,1.3-13.5,3.8l-2.1,1.2l-0.2-2.4
		C718.7,31.9,704.4,18.5,687,18.5z"/>
	<g id="CRM" transform="translate(671.8, 65.3)">
		<path id="Path" class="st5" d="M7,11.5c-2.4,0-4.3-1.9-4.3-4.5S4.6,2.6,7,2.6c1.9,0,3.5,1,4,3.3l2.6-0.7C13,1.9,10.3,0,7,0
			C3.1,0,0,3.1,0,7c0,3.9,3.1,7,7,7c3.2,0,5.9-1.9,6.6-5.4L11,8.1C10.5,10.4,8.9,11.5,7,11.5z"/>
		<path id="Shape" class="st5" d="M27.3,13.7l-4.5-5c2.3-0.3,3.8-1.9,3.8-4.2c0-2.5-1.9-4.2-4.8-4.2h-6.4v13.4h2.7V8.8h1.4l4.4,4.9
			H27.3z M18.2,6.3V2.8h3.7c1.3,0,2.1,0.7,2.1,1.8s-0.8,1.8-2.1,1.8H18.2z"/>
		<polygon id="Path_00000123416130697070415390000011901621304897458326_" class="st5" points="43.4,0.3 41.1,0.3 36,9.6 30.9,0.3 
			28.5,0.3 28.5,13.7 31.2,13.7 31.2,6 35.4,13.7 36.6,13.7 40.8,6 40.8,13.7 43.4,13.7 		"/>
	</g>
	<g id="Telephony" transform="translate(66.4, 64.6)">
		<polygon id="Path_00000091727676879440194470000016302447965641544348_" class="st5" points="11.6,3.5 11.6,1 0,1 0,3.5 4.5,3.5 
			4.5,14.4 7.2,14.4 7.2,3.5 		"/>
		<path id="Shape_00000044141676814923630960000016367489447016144551_" class="st5" d="M20.7,9.2c-0.1-3-2.4-5.1-5.1-5.1
			c-2.9,0-5.2,2.2-5.2,5.3s2.3,5.3,5.1,5.3c2.2,0,4-1,4.8-3.1L18,11.1c-0.7,1.2-1.7,1.3-2.5,1.3c-1.2,0-2.2-0.9-2.5-2.3h7.6V9.2z
			 M15.6,6.4c1.1,0,2,0.6,2.4,1.8h-4.8C13.5,7,14.6,6.4,15.6,6.4z"/>
		<polygon id="Path_00000029007514214119227250000007711787843141238418_" class="st5" points="24.9,14.4 24.9,0 22.3,0 22.3,14.4 
					"/>
		<path id="Shape_00000050624655170103851760000011756912136321493680_" class="st5" d="M36.7,9.2c-0.1-3-2.4-5.1-5.1-5.1
			c-2.9,0-5.2,2.2-5.2,5.3s2.3,5.3,5.1,5.3c2.2,0,4-1,4.8-3.1l-2.4-0.5c-0.7,1.2-1.7,1.3-2.5,1.3c-1.2,0-2.2-0.9-2.5-2.3h7.6V9.2z
			 M31.7,6.4c1.1,0,2,0.6,2.4,1.8h-4.8C29.5,7,30.7,6.4,31.7,6.4z"/>
		<path id="Shape_00000131355638625444330560000009503140881602548111_" class="st5" d="M44.3,4.1c-1.4,0-2.5,0.4-3.3,1.1V4.4h-2.6
			v13.4H41v-4.2c0.8,0.7,1.9,1.1,3.3,1.1c2.5,0,4.9-2.1,4.9-5.3S46.8,4.1,44.3,4.1z M43.8,12.4c-1.4,0-2.8-1.1-2.8-3s1.4-3,2.8-3
			c1.6,0,2.8,1.2,2.8,3S45.4,12.4,43.8,12.4z"/>
		<path id="Path_00000119836873872738548800000010590280654717286589_" class="st5" d="M56.5,4.1c-1.3,0-2.4,0.4-3.1,1.2V0h-2.6
			v14.4h2.6V10c0-2.4,1-3.4,2.5-3.4c1.2,0,2,0.9,2,2.3v5.5h2.6V8.3C60.5,5.8,58.9,4.1,56.5,4.1z"/>
		<path id="Shape_00000080911537721759199170000015218697453878478259_" class="st5" d="M67.3,4.2c-3,0-5.4,2.1-5.4,5.2
			s2.5,5.2,5.4,5.2c2.9,0,5.4-2.1,5.4-5.2S70.3,4.2,67.3,4.2z M67.3,12.4c-1.4,0-2.9-1.1-2.9-3s1.4-3,2.9-3c1.4,0,2.8,1.1,2.8,3
			S68.7,12.4,67.3,12.4z"/>
		<path id="Path_00000066512669791767484120000006255271589970376089_" class="st5" d="M80.1,4.1c-1.3,0-2.4,0.4-3.1,1.2V4.4h-2.6
			v10H77V10c0-2.4,1-3.4,2.5-3.4c1.2,0,2,0.9,2,2.3v5.5h2.6V8.3C84.1,5.8,82.5,4.1,80.1,4.1z"/>
		<polygon id="Path_00000066479356679045333120000006294297046614770327_" class="st5" points="95.9,4.4 93,4.4 90.2,10.8 87.6,4.4 
			84.6,4.4 88.8,14.1 87.2,17.8 90.1,17.8 		"/>
	</g>
	<g id="Voice-Call-routing-C" transform="translate(70.0465, 128.376)">
		<polygon id="Path_00000183247357134825413950000004240533963290459314_" class="st6" points="9.9,0.8 7.8,0.8 5,7.6 2.1,0.8 
			0,0.8 4,10.2 5.9,10.2 		"/>
		<path id="Shape_00000111875009876004485480000012436995884028384651_" class="st6" d="M13.2,3c-2.1,0-3.8,1.5-3.8,3.7
			s1.7,3.7,3.8,3.7c2,0,3.8-1.5,3.8-3.7S15.2,3,13.2,3z M13.2,8.8c-1,0-2-0.8-2-2.1s1-2.1,2-2.1c1,0,2,0.8,2,2.1S14.1,8.8,13.2,8.8z
			"/>
		<path id="Shape_00000134956858216402611000000014141410892525120671_" class="st6" d="M19.1,0C18.4,0,18,0.5,18,1.1
			c0,0.6,0.5,1.1,1.1,1.1c0.6,0,1.1-0.5,1.1-1.1C20.2,0.5,19.7,0,19.1,0z M20,10.2v-7h-1.8v7H20z"/>
		<path id="Path_00000122678692993803564460000003219516960994458285_" class="st6" d="M25,8.7c-1.2,0-1.9-0.8-1.9-2
			c0-1.2,0.8-2,1.9-2c0.8,0,1.5,0.4,1.7,1.4l1.8-0.5C28,4,26.6,3,25,3c-2,0-3.7,1.5-3.7,3.7s1.7,3.7,3.7,3.7c1.7,0,3.1-1,3.5-2.6
			l-1.7-0.4C26.4,8.3,25.8,8.7,25,8.7z"/>
		<path id="Shape_00000141455516387310794630000009173185038580783284_" class="st6" d="M36.2,6.6C36.1,4.4,34.5,3,32.6,3
			c-2,0-3.6,1.5-3.6,3.7s1.6,3.7,3.6,3.7c1.5,0,2.8-0.7,3.4-2.2l-1.7-0.4c-0.5,0.9-1.2,0.9-1.7,0.9c-0.9,0-1.6-0.6-1.7-1.6h5.3V6.6z
			 M32.6,4.6c0.7,0,1.4,0.4,1.7,1.3h-3.4C31.1,5,31.9,4.6,32.6,4.6z"/>
		<path id="Path_00000101819147433071216830000010820637863541012361_" class="st6" d="M5.3,27.6c-1.7,0-3-1.3-3-3.1
			c0-1.8,1.3-3.1,3-3.1c1.3,0,2.4,0.7,2.8,2.3l1.8-0.5c-0.5-2.3-2.4-3.6-4.6-3.6c-2.8,0-4.9,2.2-4.9,4.9c0,2.8,2.2,4.9,4.9,4.9
			c2.3,0,4.2-1.3,4.6-3.8l-1.8-0.4C7.8,26.9,6.7,27.6,5.3,27.6z"/>
		<path id="Shape_00000108299738245549466310000018116904162723217851_" class="st6" d="M18.3,22.2h-1.8v0.6
			c-0.6-0.5-1.4-0.8-2.3-0.8c-1.8,0-3.4,1.5-3.4,3.7s1.7,3.7,3.4,3.7c1,0,1.7-0.3,2.3-0.8v0.5h1.8V22.2z M14.4,27.8
			c-1.1,0-2-0.8-2-2.1s0.8-2.1,2-2.1c1,0,2,0.8,2,2.1S15.4,27.8,14.4,27.8z"/>
		<polygon id="Path_00000161601780953825318140000013706873229331632292_" class="st6" points="21.8,29.2 21.8,19.1 19.9,19.1 
			19.9,29.2 		"/>
		<polygon id="Path_00000044153904618547609240000002303935479613557140_" class="st6" points="25.3,29.2 25.3,19.1 23.5,19.1 
			23.5,29.2 		"/>
		<path id="Path_00000094611181620822022020000001503740752906885538_" class="st6" d="M34.5,22.1c-1.1,0-1.9,0.6-2.5,1.4v-1.3h-1.8
			v7H32v-2.3c0-1.9,0.8-3,2.5-3h0.4l0.1-1.8C34.8,22.1,34.7,22.1,34.5,22.1z"/>
		<path id="Shape_00000094580498819569544710000014377795831250685571_" class="st6" d="M39,22c-2.1,0-3.8,1.5-3.8,3.7
			s1.7,3.7,3.8,3.7c2,0,3.8-1.5,3.8-3.7S41.1,22,39,22z M39,27.8c-1,0-2-0.8-2-2.1s1-2.1,2-2.1c1,0,2,0.8,2,2.1S40,27.8,39,27.8z"/>
		<path id="Path_00000122710414133167240890000018299083325899738540_" class="st6" d="M50.6,22.2h-1.8v3.1c0,1.7-0.7,2.4-1.7,2.4
			c-0.9,0-1.4-0.7-1.4-1.6v-3.9h-1.8v4.3c0,1.7,1.1,2.9,2.8,2.9c0.9,0,1.7-0.3,2.2-0.8v0.6h1.8V22.2z"/>
		<path id="Path_00000104684118290820267220000012164981282140955521_" class="st6" d="M56.8,27.3c-0.4,0.2-0.8,0.3-1.2,0.3
			c-0.6,0-1-0.4-1-1.2v-2.8h2.3v-1.5h-2.3v-2.1h-1.8v2.1h-1.5v1.5h1.5v2.9c0,1.9,1.1,2.8,2.7,2.8c0.6,0,1.1-0.1,1.8-0.5L56.8,27.3z"
			/>
		<path id="Shape_00000160178615818003993980000015992136931012304013_" class="st6" d="M59.1,19c-0.7,0-1.1,0.5-1.1,1.1
			c0,0.6,0.5,1.1,1.1,1.1c0.6,0,1.1-0.5,1.1-1.1C60.2,19.5,59.7,19,59.1,19z M60,29.2v-7h-1.8v7H60z"/>
		<path id="Path_00000084527647602638317080000014320304212573619840_" class="st6" d="M65.8,22c-0.9,0-1.7,0.3-2.2,0.8v-0.6h-1.8v7
			h1.8v-3.1c0-1.7,0.7-2.4,1.7-2.4c0.9,0,1.4,0.7,1.4,1.6v3.9h1.8v-4.3C68.6,23.2,67.5,22,65.8,22z"/>
		<path id="Shape_00000101805828215603243750000004931226623767162265_" class="st6" d="M76.9,22.2h-1.8v0.4
			c-0.5-0.4-1.2-0.6-2.2-0.6c-1.8,0-3.4,1.5-3.4,3.4c0,1.9,1.6,3.4,3.4,3.4c1,0,1.7-0.2,2.2-0.6v0.1c0,1.2-0.8,1.9-1.9,1.9
			c-0.9,0-1.4-0.3-1.9-1l-1.5,1.1c0.6,1,1.8,1.5,3.4,1.5c2.3,0,3.7-1.2,3.7-3.3L76.9,22.2z M73.3,27.2c-1.1,0-1.9-0.7-1.9-1.8
			c0-1.1,0.8-1.8,1.9-1.8c1,0,1.9,0.7,1.9,1.8C75.1,26.4,74.2,27.2,73.3,27.2z"/>
		<path id="Path_00000090994787650029822100000007732230366800254630_" class="st6" d="M5.3,46.6c-1.7,0-3-1.3-3-3.1s1.3-3.1,3-3.1
			c1.3,0,2.4,0.7,2.8,2.3l1.8-0.5c-0.5-2.3-2.4-3.6-4.6-3.6c-2.8,0-4.9,2.2-4.9,4.9c0,2.8,2.2,4.9,4.9,4.9c2.3,0,4.2-1.3,4.6-3.8
			l-1.8-0.4C7.8,45.9,6.7,46.6,5.3,46.6z"/>
		<path id="Shape_00000000902868765998433130000009890705770974177468_" class="st6" d="M18.3,41.2h-1.8v0.6
			c-0.6-0.5-1.4-0.8-2.3-0.8c-1.8,0-3.4,1.5-3.4,3.7c0,2.2,1.7,3.7,3.4,3.7c1,0,1.7-0.3,2.3-0.8v0.5h1.8V41.2z M14.4,46.8
			c-1.1,0-2-0.8-2-2.1c0-1.3,0.8-2.1,2-2.1c1,0,2,0.8,2,2.1C16.4,46,15.4,46.8,14.4,46.8z"/>
		<polygon id="Path_00000151544236341652899410000009832266730263269260_" class="st6" points="21.8,48.2 21.8,38.1 19.9,38.1 
			19.9,48.2 		"/>
		<polygon id="Path_00000171700131791459083490000006895662774218644375_" class="st6" points="25.3,48.2 25.3,38.1 23.5,38.1 
			23.5,48.2 		"/>
		<path id="Path_00000156569341448798836510000017576739600734177412_" class="st6" d="M34.5,41.1c-1.1,0-1.9,0.6-2.5,1.4v-1.3h-1.8
			v7H32v-2.3c0-1.9,0.8-3,2.5-3h0.4l0.1-1.8C34.8,41.1,34.7,41.1,34.5,41.1z"/>
		<path id="Shape_00000165193080465837853850000010272896904373242277_" class="st6" d="M42.4,44.6c-0.1-2.1-1.7-3.6-3.5-3.6
			c-2,0-3.6,1.5-3.6,3.7c0,2.2,1.6,3.7,3.6,3.7c1.5,0,2.8-0.7,3.4-2.2l-1.7-0.3c-0.5,0.9-1.2,0.9-1.7,0.9c-0.9,0-1.6-0.6-1.8-1.6
			h5.3V44.6z M38.8,42.6c0.7,0,1.4,0.4,1.7,1.3h-3.4C37.3,43,38.1,42.6,38.8,42.6z"/>
		<path id="Path_00000043456997401779627920000017324735243889847957_" class="st6" d="M46.7,46.7c-1.2,0-1.9-0.8-1.9-2
			c0-1.2,0.8-2,1.9-2c0.8,0,1.5,0.4,1.7,1.4l1.8-0.5C49.7,42,48.3,41,46.7,41c-2,0-3.7,1.5-3.7,3.7c0,2.2,1.7,3.7,3.7,3.7
			c1.7,0,3.1-1,3.5-2.6l-1.7-0.4C48.1,46.3,47.5,46.7,46.7,46.7z"/>
		<path id="Shape_00000165920779410102061250000003379279676200059270_" class="st6" d="M54.5,41c-2.1,0-3.8,1.5-3.8,3.7
			c0,2.2,1.7,3.7,3.8,3.7c2,0,3.8-1.5,3.8-3.7C58.3,42.5,56.6,41,54.5,41z M54.5,46.8c-1,0-2-0.8-2-2.1c0-1.3,1-2.1,2-2.1
			c1,0,2,0.8,2,2.1C56.5,46,55.5,46.8,54.5,46.8z"/>
		<path id="Path_00000116932001158172831980000006954458586295914662_" class="st6" d="M63.8,41.1c-1.1,0-1.9,0.6-2.5,1.4v-1.3h-1.8
			v7h1.8v-2.3c0-1.9,0.8-3,2.5-3h0.4l0.1-1.8C64.1,41.1,64,41.1,63.8,41.1z"/>
		<path id="Shape_00000090287882376338264640000001673483819490326962_" class="st6" d="M72,38.1h-1.8v3.7c-0.6-0.5-1.4-0.8-2.3-0.8
			c-1.8,0-3.4,1.5-3.4,3.7c0,2.2,1.7,3.7,3.4,3.7c1,0,1.7-0.3,2.3-0.8v0.5H72V38.1z M68.2,46.8c-1.1,0-2-0.8-2-2.1
			c0-1.3,0.8-2.1,2-2.1c1,0,2,0.8,2,2.1C70.2,46,69.2,46.8,68.2,46.8z"/>
		<path id="Shape_00000145759170514778206440000010168043204938651047_" class="st6" d="M74.7,38c-0.7,0-1.1,0.5-1.1,1.1
			c0,0.6,0.5,1.1,1.1,1.1c0.6,0,1.1-0.5,1.1-1.1C75.8,38.5,75.4,38,74.7,38z M75.6,48.2v-7h-1.8v7H75.6z"/>
		<path id="Path_00000181051175566620806000000016883446032203592125_" class="st6" d="M81.5,41c-0.9,0-1.7,0.3-2.2,0.8v-0.6h-1.8v7
			h1.8v-3.1c0-1.7,0.7-2.4,1.7-2.4c0.9,0,1.4,0.7,1.4,1.6v3.9h1.8v-4.3C84.3,42.2,83.1,41,81.5,41z"/>
		<path id="Shape_00000131338261502338690600000010678019568963076736_" class="st6" d="M92.6,41.2h-1.8v0.4
			c-0.5-0.4-1.2-0.6-2.2-0.6c-1.8,0-3.4,1.5-3.4,3.4c0,1.9,1.6,3.4,3.4,3.4c1,0,1.7-0.2,2.2-0.6v0.1c0,1.2-0.8,1.9-1.9,1.9
			c-0.9,0-1.4-0.3-1.9-1l-1.5,1.1c0.6,1,1.8,1.5,3.4,1.5c2.3,0,3.7-1.2,3.7-3.3L92.6,41.2z M88.9,46.2c-1.1,0-1.9-0.7-1.9-1.8
			c0-1.1,0.8-1.8,1.9-1.8c1,0,1.9,0.7,1.9,1.8C90.8,45.4,89.9,46.2,88.9,46.2z"/>
		<path id="Shape_00000170268624569923336190000000505692113990660790_" class="st6" d="M9.2,67.2L6,63.7c1.6-0.2,2.7-1.4,2.7-2.9
			c0-1.8-1.3-3-3.4-3H0.8v9.4h1.9v-3.4h1l3.1,3.4H9.2z M2.7,62v-2.5h2.6c0.9,0,1.5,0.5,1.5,1.2S6.2,62,5.3,62H2.7z"/>
		<path id="Shape_00000015313444377163280310000006168201098138244283_" class="st6" d="M16.3,63.6c-0.1-2.1-1.7-3.6-3.5-3.6
			c-2,0-3.6,1.5-3.6,3.7c0,2.2,1.6,3.7,3.6,3.7c1.5,0,2.8-0.7,3.4-2.2l-1.7-0.3c-0.5,0.9-1.2,0.9-1.7,0.9c-0.9,0-1.6-0.6-1.8-1.6
			h5.3V63.6z M12.8,61.6c0.7,0,1.4,0.4,1.7,1.3H11C11.3,62,12.1,61.6,12.8,61.6z"/>
		<path id="Shape_00000160176184686548788300000013970057960555893163_" class="st6" d="M24.5,60.2h-1.8v0.6
			C22,60.3,21.3,60,20.3,60c-1.8,0-3.4,1.5-3.4,3.7c0,2.2,1.7,3.7,3.4,3.7c1,0,1.7-0.3,2.3-0.8v0.5h1.8V60.2z M20.6,65.8
			c-1.1,0-2-0.8-2-2.1s0.8-2.1,2-2.1c1,0,2,0.8,2,2.1S21.6,65.8,20.6,65.8z"/>
		<polygon id="Path_00000021828568005695948570000015694415273149589414_" class="st6" points="28,67.2 28,57.1 26.1,57.1 
			26.1,67.2 		"/>
		<polygon id="Path_00000116199111072417012930000003334595758821290627_" class="st6" points="34.1,64.4 34.1,62.8 29.5,62.8 
			29.5,64.4 		"/>
		<path id="Path_00000047774825051893820230000002128677550620849582_" class="st6" d="M40.2,65.3c-0.4,0.2-0.8,0.3-1.2,0.3
			c-0.6,0-1-0.4-1-1.2v-2.8h2.3v-1.5H38v-2.1h-1.8v2.1h-1.5v1.5h1.5v2.9c0,1.9,1.1,2.8,2.7,2.8c0.6,0,1.1-0.1,1.8-0.5L40.2,65.3z"/>
		<path id="Shape_00000145023533552921011840000005887166341095441032_" class="st6" d="M42.5,57c-0.7,0-1.1,0.5-1.1,1.1
			c0,0.6,0.5,1.1,1.1,1.1c0.6,0,1.1-0.5,1.1-1.1C43.6,57.5,43.1,57,42.5,57z M43.4,67.2v-7h-1.8v7H43.4z"/>
		<path id="Path_00000025426328674909309500000013502641087322647700_" class="st6" d="M54,60c-1.1,0-2,0.4-2.5,1.1
			C50.9,60.4,50,60,49.1,60c-0.9,0-1.6,0.3-2.1,0.8v-0.6h-1.8v7H47v-3.4c0-1.5,0.6-2.1,1.6-2.1c0.8,0,1.4,0.6,1.4,1.5v4h1.8v-3.4
			c0-1.5,0.6-2.1,1.6-2.1c0.8,0,1.4,0.6,1.4,1.5v4h1.8v-4.4C56.7,61.1,55.4,60,54,60z"/>
		<path id="Shape_00000082346265540083225710000002861625960325919632_" class="st6" d="M64.8,63.6c-0.1-2.1-1.7-3.6-3.5-3.6
			c-2,0-3.6,1.5-3.6,3.7c0,2.2,1.6,3.7,3.6,3.7c1.5,0,2.8-0.7,3.4-2.2l-1.7-0.3c-0.5,0.9-1.2,0.9-1.7,0.9c-0.9,0-1.6-0.6-1.8-1.6
			h5.3V63.6z M61.2,61.6c0.7,0,1.4,0.4,1.7,1.3h-3.4C59.7,62,60.5,61.6,61.2,61.6z"/>
		<polygon id="Path_00000063618983169799491080000014816085293531936940_" class="st6" points="8.3,78.5 8.3,76.8 0.1,76.8 
			0.1,78.5 3.3,78.5 3.3,86.2 5.2,86.2 5.2,78.5 		"/>
		<path id="Path_00000083774085147706278770000004320070345483585975_" class="st6" d="M13.2,79.1c-1.1,0-1.9,0.6-2.5,1.4v-1.3H8.8
			v7h1.8v-2.3c0-1.9,0.8-3,2.5-3h0.4l0.1-1.8C13.5,79.1,13.4,79.1,13.2,79.1z"/>
		<path id="Shape_00000023276545737036310880000010423300286725694370_" class="st6" d="M21.5,79.2h-1.8v0.6
			c-0.6-0.5-1.4-0.8-2.3-0.8c-1.8,0-3.4,1.5-3.4,3.7s1.7,3.7,3.4,3.7c1,0,1.7-0.3,2.3-0.8v0.5h1.8V79.2z M17.7,84.8
			c-1.1,0-2-0.8-2-2.1s0.8-2.1,2-2.1c1,0,2,0.8,2,2.1S18.7,84.8,17.7,84.8z"/>
		<path id="Path_00000168822823496813667490000000267718833153769088_" class="st6" d="M27.3,79c-0.9,0-1.7,0.3-2.2,0.8v-0.6h-1.8v7
			h1.8v-3.1c0-1.7,0.7-2.4,1.7-2.4c0.9,0,1.4,0.7,1.4,1.6v3.9h1.8v-4.3C30.1,80.2,28.9,79,27.3,79z"/>
		<path id="Path_00000183238516045581627210000000824282277052100507_" class="st6" d="M31,84.3c0.2,1.5,1.6,2.1,3.1,2.1
			c1.8,0,3.1-0.8,3.1-2.3c0-0.9-0.6-1.7-1.8-2l-1.7-0.4c-0.5-0.1-0.6-0.4-0.6-0.6c0-0.3,0.2-0.7,1-0.7c0.8,0,1.3,0.4,1.3,1l1.8-0.3
			c-0.2-1.2-1.4-2.1-3-2.1c-1.8,0-2.9,1-2.9,2.3c0,1,0.7,1.7,2,2l1.4,0.3c0.6,0.1,0.8,0.4,0.8,0.6c0,0.4-0.4,0.7-1.1,0.7
			c-0.7,0-1.3-0.2-1.4-1L31,84.3z"/>
		<path id="Path_00000054981579406424724360000003238535151306206371_" class="st6" d="M41.5,84.7c-1.2,0-1.9-0.8-1.9-2
			c0-1.2,0.8-2,1.9-2c0.8,0,1.5,0.4,1.7,1.4l1.8-0.5C44.5,80,43.1,79,41.5,79c-2,0-3.7,1.5-3.7,3.7s1.7,3.7,3.7,3.7
			c1.7,0,3.1-1,3.5-2.6l-1.7-0.4C43,84.3,42.3,84.7,41.5,84.7z"/>
		<path id="Path_00000036228391620079310240000006653539747008135572_" class="st6" d="M50.5,79.1c-1.1,0-1.9,0.6-2.5,1.4v-1.3h-1.8
			v7H48v-2.3c0-1.9,0.8-3,2.5-3h0.4l0.1-1.8C50.8,79.1,50.7,79.1,50.5,79.1z"/>
		<path id="Shape_00000059286242308286653810000010588744150966205089_" class="st6" d="M52.9,76c-0.7,0-1.1,0.5-1.1,1.1
			c0,0.6,0.5,1.1,1.1,1.1c0.6,0,1.1-0.5,1.1-1.1C54,76.5,53.5,76,52.9,76z M53.8,86.2v-7h-1.8v7H53.8z"/>
		<path id="Shape_00000164484359335580827330000003470112107570142905_" class="st6" d="M59.7,79c-1,0-1.7,0.3-2.3,0.8v-0.6h-1.8
			v9.4h1.8v-2.9c0.6,0.5,1.4,0.8,2.3,0.8c1.8,0,3.4-1.5,3.4-3.7S61.5,79,59.7,79z M59.4,84.8c-1,0-2-0.8-2-2.1s1-2.1,2-2.1
			c1.1,0,2,0.8,2,2.1S60.5,84.8,59.4,84.8z"/>
		<path id="Path_00000049912785077781764110000018093047969739937700_" class="st6" d="M68.8,84.3c-0.4,0.2-0.8,0.3-1.2,0.3
			c-0.6,0-1-0.4-1-1.2v-2.8h2.3v-1.5h-2.3v-2.1h-1.8v2.1h-1.5v1.5h1.5v2.9c0,1.9,1.1,2.8,2.7,2.8c0.6,0,1.1-0.1,1.8-0.5L68.8,84.3z"
			/>
		<path id="Shape_00000024680446313193372170000009503878599223662218_" class="st6" d="M71.1,76c-0.7,0-1.1,0.5-1.1,1.1
			c0,0.6,0.5,1.1,1.1,1.1c0.6,0,1.1-0.5,1.1-1.1C72.2,76.5,71.7,76,71.1,76z M72,86.2v-7h-1.8v7H72z"/>
		<path id="Shape_00000007386011660220224800000016441476984100888202_" class="st6" d="M77,79c-2.1,0-3.8,1.5-3.8,3.7
			s1.7,3.7,3.8,3.7c2,0,3.8-1.5,3.8-3.7S79.1,79,77,79z M77,84.8c-1,0-2-0.8-2-2.1s1-2.1,2-2.1c1,0,2,0.8,2,2.1S78,84.8,77,84.8z"/>
		<path id="Path_00000093862969457181817720000012331624513746925972_" class="st6" d="M86,79c-0.9,0-1.7,0.3-2.2,0.8v-0.6h-1.8v7
			h1.8v-3.1c0-1.7,0.7-2.4,1.7-2.4c0.9,0,1.4,0.7,1.4,1.6v3.9h1.8v-4.3C88.8,80.2,87.7,79,86,79z"/>
		<path id="Shape_00000056408340924930677060000012272911237786682784_" class="st6" d="M5.4,95.6c-2.8,0-4.9,2.2-4.9,4.9
			c0,2.7,2.2,4.9,4.9,4.9s4.9-2.2,4.9-4.9C10.3,97.8,8.1,95.6,5.4,95.6z M5.4,103.6c-1.7,0-3-1.3-3-3.1s1.3-3.1,3-3.1s3,1.3,3,3.1
			S7.1,103.6,5.4,103.6z"/>
		<path id="Path_00000165931391476083301620000005577530106329218721_" class="st6" d="M18.2,98.2h-1.8v3.1c0,1.7-0.7,2.4-1.7,2.4
			c-0.9,0-1.4-0.7-1.4-1.6v-3.9h-1.8v4.3c0,1.7,1.1,2.9,2.8,2.9c0.9,0,1.7-0.3,2.2-0.8v0.6h1.8V98.2z"/>
		<path id="Path_00000121961733778144172850000013503324465152025498_" class="st6" d="M24.5,103.3c-0.4,0.2-0.8,0.3-1.2,0.3
			c-0.6,0-1-0.4-1-1.2v-2.8h2.3v-1.5h-2.3v-2.1h-1.8v2.1h-1.5v1.5h1.5v2.9c0,1.9,1.1,2.8,2.7,2.8c0.6,0,1.1-0.1,1.8-0.5L24.5,103.3z
			"/>
		<path id="Shape_00000020362105129802874230000010341358940985895296_" class="st6" d="M29.9,98c-1,0-1.7,0.3-2.3,0.8v-3.7h-1.8
			v10.1h1.8v-0.5c0.6,0.5,1.4,0.8,2.3,0.8c1.8,0,3.4-1.5,3.4-3.7S31.6,98,29.9,98z M29.5,103.8c-1,0-2-0.8-2-2.1s1-2.1,2-2.1
			c1.1,0,2,0.8,2,2.1S30.7,103.8,29.5,103.8z"/>
		<path id="Shape_00000023998379365085053940000000789977764106667152_" class="st6" d="M37.7,98c-2.1,0-3.8,1.5-3.8,3.7
			s1.7,3.7,3.8,3.7c2,0,3.8-1.5,3.8-3.7S39.7,98,37.7,98z M37.7,103.8c-1,0-2-0.8-2-2.1s1-2.1,2-2.1c1,0,2,0.8,2,2.1
			S38.6,103.8,37.7,103.8z"/>
		<path id="Path_00000121242203522373026480000011381987159846763427_" class="st6" d="M49.2,98.2h-1.8v3.1c0,1.7-0.7,2.4-1.7,2.4
			c-0.9,0-1.4-0.7-1.4-1.6v-3.9h-1.8v4.3c0,1.7,1.1,2.9,2.8,2.9c0.9,0,1.7-0.3,2.2-0.8v0.6h1.8V98.2z"/>
		<path id="Path_00000052097869879147276150000011574400800764545929_" class="st6" d="M54.9,98c-0.9,0-1.7,0.3-2.2,0.8v-0.6h-1.8v7
			h1.8v-3.1c0-1.7,0.7-2.4,1.7-2.4c0.9,0,1.4,0.7,1.4,1.6v3.9h1.8v-4.3C57.7,99.2,56.6,98,54.9,98z"/>
		<path id="Shape_00000155146389557886695400000001983645042504904109_" class="st6" d="M66.3,95.1h-1.8v3.7
			c-0.6-0.5-1.4-0.8-2.3-0.8c-1.8,0-3.4,1.5-3.4,3.7s1.7,3.7,3.4,3.7c1,0,1.7-0.3,2.3-0.8v0.5h1.8V95.1z M62.4,103.8
			c-1.1,0-2-0.8-2-2.1s0.8-2.1,2-2.1c1,0,2,0.8,2,2.1S63.4,103.8,62.4,103.8z"/>
		<path id="Path_00000096760473284096639500000013511410233637338003_" class="st6" d="M5.3,122.6c-1.7,0-3-1.3-3-3.1s1.3-3.1,3-3.1
			c1.3,0,2.4,0.7,2.8,2.3l1.8-0.5c-0.5-2.3-2.4-3.6-4.6-3.6c-2.8,0-4.9,2.2-4.9,4.9c0,2.8,2.2,4.9,4.9,4.9c2.3,0,4.2-1.3,4.6-3.8
			l-1.8-0.4C7.8,121.9,6.7,122.6,5.3,122.6z"/>
		<path id="Shape_00000064333331200421102880000000552573209537232041_" class="st6" d="M18.3,117.2h-1.8v0.6
			c-0.6-0.5-1.4-0.8-2.3-0.8c-1.8,0-3.4,1.5-3.4,3.7s1.7,3.7,3.4,3.7c1,0,1.7-0.3,2.3-0.8v0.5h1.8V117.2z M14.4,122.8
			c-1.1,0-2-0.8-2-2.1s0.8-2.1,2-2.1c1,0,2,0.8,2,2.1S15.4,122.8,14.4,122.8z"/>
		<path id="Path_00000019669641859601146640000015542724931750372755_" class="st6" d="M28.7,117c-1.1,0-2,0.4-2.5,1.1
			c-0.5-0.7-1.4-1.1-2.3-1.1c-0.9,0-1.6,0.3-2.1,0.8v-0.6h-1.8v7h1.8v-3.4c0-1.5,0.6-2.1,1.6-2.1c0.8,0,1.4,0.6,1.4,1.5v4h1.8v-3.4
			c0-1.5,0.6-2.1,1.6-2.1c0.8,0,1.4,0.6,1.4,1.5v4h1.8v-4.4C31.4,118.1,30.2,117,28.7,117z"/>
		<path id="Shape_00000052092480714391797720000005382656946341687976_" class="st6" d="M37.1,117c-1,0-1.7,0.3-2.3,0.8v-0.6h-1.8
			v9.4h1.8v-2.9c0.6,0.5,1.4,0.8,2.3,0.8c1.8,0,3.4-1.5,3.4-3.7S38.9,117,37.1,117z M36.8,122.8c-1,0-2-0.8-2-2.1s1-2.1,2-2.1
			c1.1,0,2,0.8,2,2.1S37.9,122.8,36.8,122.8z"/>
		<path id="Shape_00000080193602387137350580000003108360789384182689_" class="st6" d="M48.7,117.2h-1.8v0.6
			c-0.6-0.5-1.4-0.8-2.3-0.8c-1.8,0-3.4,1.5-3.4,3.7s1.7,3.7,3.4,3.7c1,0,1.7-0.3,2.3-0.8v0.5h1.8V117.2z M44.8,122.8
			c-1.1,0-2-0.8-2-2.1s0.8-2.1,2-2.1c1,0,2,0.8,2,2.1S45.8,122.8,44.8,122.8z"/>
		<path id="Shape_00000145044067863252150540000014776250799893841553_" class="st6" d="M51.4,114c-0.7,0-1.1,0.5-1.1,1.1
			c0,0.6,0.5,1.1,1.1,1.1c0.6,0,1.1-0.5,1.1-1.1C52.5,114.5,52,114,51.4,114z M52.3,124.2v-7h-1.8v7H52.3z"/>
		<path id="Shape_00000166654085005078953080000003543968843598277282_" class="st6" d="M60.9,117.2h-1.8v0.4
			c-0.5-0.4-1.2-0.6-2.2-0.6c-1.8,0-3.4,1.5-3.4,3.4c0,1.9,1.6,3.4,3.4,3.4c1,0,1.7-0.2,2.2-0.6v0.1c0,1.2-0.8,1.9-1.9,1.9
			c-0.9,0-1.4-0.3-1.9-1l-1.5,1.1c0.6,1,1.8,1.5,3.4,1.5c2.3,0,3.7-1.2,3.7-3.3L60.9,117.2z M57.2,122.2c-1.1,0-1.9-0.7-1.9-1.8
			c0-1.1,0.8-1.8,1.9-1.8c1,0,1.9,0.7,1.9,1.8C59.1,121.4,58.2,122.2,57.2,122.2z"/>
		<path id="Path_00000136379050753665183140000006058602817974718357_" class="st6" d="M66.6,117c-0.9,0-1.7,0.3-2.2,0.8v-0.6h-1.8
			v7h1.8v-3.1c0-1.7,0.7-2.4,1.7-2.4c0.9,0,1.4,0.7,1.4,1.6v3.9h1.8v-4.3C69.4,118.2,68.3,117,66.6,117z"/>
		<path id="Shape_00000035525970257502377130000015407775543914207372_" class="st6" d="M81.1,114.1h-1.8v3.7
			c-0.6-0.5-1.4-0.8-2.3-0.8c-1.8,0-3.4,1.5-3.4,3.7s1.7,3.7,3.4,3.7c1,0,1.7-0.3,2.3-0.8v0.5h1.8V114.1z M77.2,122.8
			c-1.1,0-2-0.8-2-2.1s0.8-2.1,2-2.1c1,0,2,0.8,2,2.1S78.2,122.8,77.2,122.8z"/>
		<path id="Shape_00000000922052527984073860000017153304778084348549_" class="st6" d="M83.8,114c-0.7,0-1.1,0.5-1.1,1.1
			c0,0.6,0.5,1.1,1.1,1.1c0.6,0,1.1-0.5,1.1-1.1C84.9,114.5,84.4,114,83.8,114z M84.7,124.2v-7h-1.8v7H84.7z"/>
		<path id="Shape_00000131367717186950177010000009484590440962158505_" class="st6" d="M93.5,117.2h-1.8v0.6
			c-0.6-0.5-1.4-0.8-2.3-0.8c-1.8,0-3.4,1.5-3.4,3.7s1.7,3.7,3.4,3.7c1,0,1.7-0.3,2.3-0.8v0.5h1.8V117.2z M89.7,122.8
			c-1.1,0-2-0.8-2-2.1s0.8-2.1,2-2.1c1,0,2,0.8,2,2.1S90.7,122.8,89.7,122.8z"/>
		<polygon id="Path_00000011019047531374862240000016610416608214215832_" class="st6" points="97,124.2 97,114.1 95.2,114.1 
			95.2,124.2 		"/>
		<path id="Shape_00000140010312771771111410000009106402759042686905_" class="st6" d="M99.7,114c-0.7,0-1.1,0.5-1.1,1.1
			c0,0.6,0.5,1.1,1.1,1.1c0.6,0,1.1-0.5,1.1-1.1C100.9,114.5,100.4,114,99.7,114z M100.7,124.2v-7h-1.8v7H100.7z"/>
		<path id="Path_00000114758528580579673550000013825383781768140692_" class="st6" d="M106.5,117c-0.9,0-1.7,0.3-2.2,0.8v-0.6h-1.8
			v7h1.8v-3.1c0-1.7,0.7-2.4,1.7-2.4c0.9,0,1.4,0.7,1.4,1.6v3.9h1.8v-4.3C109.3,118.2,108.2,117,106.5,117z"/>
		<path id="Shape_00000071520389050536656950000010378460167439174335_" class="st6" d="M117.6,117.2h-1.8v0.4
			c-0.5-0.4-1.2-0.6-2.2-0.6c-1.8,0-3.4,1.5-3.4,3.4c0,1.9,1.6,3.4,3.4,3.4c1,0,1.7-0.2,2.2-0.6v0.1c0,1.2-0.8,1.9-1.9,1.9
			c-0.9,0-1.4-0.3-1.9-1l-1.5,1.1c0.6,1,1.8,1.5,3.4,1.5c2.3,0,3.7-1.2,3.7-3.3L117.6,117.2z M113.9,122.2c-1.1,0-1.9-0.7-1.9-1.8
			c0-1.1,0.8-1.8,1.9-1.8c1,0,1.9,0.7,1.9,1.8C115.8,121.4,114.9,122.2,113.9,122.2z"/>
	</g>
	<g id="Delivers-voice_x2C_-call" transform="translate(319.888, 183.92)">
		<path id="Shape_00000152235385264238835890000015578573415952966049_" class="st5" d="M26.1,0.7v9.4h3.1c3.3,0,5.2-2,5.2-4.7
			c0-2.7-1.9-4.7-5.2-4.7H26.1z M27.2,9.1V1.7h2c2.6,0,4.1,1.6,4.1,3.7c0,2.1-1.5,3.7-4.1,3.7H27.2z"/>
		<path id="Shape_00000181046991847656123480000014221409236708952721_" class="st5" d="M42.5,6.5C42.4,4.4,41,3,39.1,3
			c-1.9,0-3.6,1.4-3.6,3.6c0,2.2,1.7,3.6,3.5,3.6c1.6,0,2.8-0.8,3.3-2.2l-1-0.2C40.9,8.9,40,9.3,39,9.3c-1.2,0-2.4-0.9-2.5-2.5h5.9
			V6.5z M39.1,3.9c1.1,0,2.1,0.7,2.3,2.1h-4.8C36.8,4.7,38,3.9,39.1,3.9z"/>
		<polygon id="Path_00000140705857375897283490000011756460674948968848_" class="st5" points="45.1,10.1 45.1,0 44,0 44,10.1 		"/>
		<path id="Shape_00000163034510344018611140000004893397942610791097_" class="st5" d="M47.9,0.4c-0.4,0-0.7,0.3-0.7,0.7
			c0,0.4,0.3,0.7,0.7,0.7c0.4,0,0.7-0.3,0.7-0.7C48.7,0.7,48.3,0.4,47.9,0.4z M48.5,10.1V3.2h-1.1v6.9H48.5z"/>
		<polygon id="Path_00000038391814469550932230000006219796236113527720_" class="st5" points="57,3.2 55.9,3.2 53.4,8.8 50.9,3.2 
			49.8,3.2 52.8,10.1 54,10.1 		"/>
		<path id="Shape_00000018944761663962486630000010728431228702578351_" class="st5" d="M64.4,6.5C64.3,4.4,62.8,3,61,3
			c-1.9,0-3.6,1.4-3.6,3.6c0,2.2,1.7,3.6,3.5,3.6c1.6,0,2.8-0.8,3.3-2.2l-1-0.2c-0.5,1.1-1.4,1.5-2.4,1.5c-1.2,0-2.4-0.9-2.5-2.5
			h5.9V6.5z M61,3.9c1.1,0,2.1,0.7,2.3,2.1h-4.8C58.7,4.7,59.8,3.9,61,3.9z"/>
		<path id="Path_00000093866596509047648440000011723063731986396083_" class="st5" d="M69.8,3.1c-1.3,0-2.2,0.7-2.8,1.8V3.2h-1.1
			v6.9H67V7.4c0-1.9,0.9-3.2,2.8-3.2c0.1,0,0.3,0,0.4,0l0.1-1C70.1,3.1,69.9,3.1,69.8,3.1z"/>
		<path id="Path_00000109001009589419409590000007622487822765169325_" class="st5" d="M70.7,8.2c0.2,1.3,1.4,2,3,2
			c1.7,0,2.8-0.8,2.8-2.1c0-1-0.8-1.6-1.8-1.8L73.1,6C72.4,5.8,72,5.6,72,5c0-0.7,0.5-1.1,1.5-1.1c1,0,1.7,0.5,1.8,1.3l1-0.2
			C76.1,3.8,75.1,3,73.6,3c-1.6,0-2.6,0.8-2.6,2.1c0,1,0.6,1.5,1.8,1.8l1.6,0.3c0.7,0.2,1.1,0.4,1.1,1c0,0.7-0.7,1.2-1.7,1.2
			c-1.1,0-1.9-0.5-2-1.4L70.7,8.2z"/>
		<polygon id="Path_00000060742410841691601790000017362111371676159650_" class="st5" points="87.6,3.2 86.5,3.2 84,8.8 81.5,3.2 
			80.4,3.2 83.4,10.1 84.6,10.1 		"/>
		<path id="Shape_00000148620775668051715510000001459205148579759029_" class="st5" d="M91.6,3C89.6,3,88,4.5,88,6.6
			s1.6,3.6,3.7,3.6c2,0,3.7-1.5,3.7-3.6S93.7,3,91.6,3z M91.6,9.3c-1.4,0-2.6-1.1-2.6-2.7C89,5,90.2,4,91.6,4c1.4,0,2.6,1.1,2.6,2.7
			C94.2,8.2,93.1,9.3,91.6,9.3z"/>
		<path id="Shape_00000023960846550090143880000009571461981651205800_" class="st5" d="M97.5,0.4c-0.4,0-0.7,0.3-0.7,0.7
			c0,0.4,0.3,0.7,0.7,0.7c0.4,0,0.7-0.3,0.7-0.7C98.2,0.7,97.9,0.4,97.5,0.4z M98,10.1V3.2h-1.1v6.9H98z"/>
		<path id="Path_00000028324773979870573460000012616664603598269069_" class="st5" d="M103.3,9.3c-1.4,0-2.6-1-2.6-2.6
			c0-1.6,1.1-2.6,2.6-2.6c1,0,1.9,0.6,2.3,1.6l1-0.3c-0.4-1.4-1.8-2.3-3.3-2.3c-1.9,0-3.6,1.5-3.6,3.6c0,2.2,1.7,3.6,3.6,3.6
			c1.5,0,2.9-0.9,3.3-2.3l-1-0.3C105.2,8.8,104.3,9.3,103.3,9.3z"/>
		<path id="Shape_00000183231479706692023440000016468179209836331924_" class="st5" d="M114.4,6.5C114.4,4.4,112.9,3,111,3
			c-1.9,0-3.6,1.4-3.6,3.6c0,2.2,1.7,3.6,3.5,3.6c1.6,0,2.8-0.8,3.3-2.2l-1-0.2c-0.5,1.1-1.4,1.5-2.4,1.5c-1.2,0-2.4-0.9-2.5-2.5
			h5.9V6.5z M111,3.9c1.1,0,2.1,0.7,2.3,2.1h-4.8C108.8,4.7,109.9,3.9,111,3.9z"/>
		<polygon id="Path_00000082352822868070814820000008399010639589866430_" class="st5" points="115.5,11.9 116.8,8.3 116.8,8.2 
			115.5,8.2 114.6,11.9 		"/>
		<path id="Path_00000044157929357519429340000013695978970699094928_" class="st5" d="M124.5,9.3c-1.4,0-2.6-1-2.6-2.6
			c0-1.6,1.1-2.6,2.6-2.6c1,0,1.9,0.6,2.3,1.6l1-0.3C127.4,3.9,126,3,124.5,3c-1.9,0-3.6,1.5-3.6,3.6c0,2.2,1.7,3.6,3.6,3.6
			c1.5,0,2.9-0.9,3.3-2.3l-1-0.3C126.5,8.8,125.5,9.3,124.5,9.3z"/>
		<path id="Shape_00000126299631191303677380000012478858830678161033_" class="st5" d="M135.9,3.2h-1.1v1.1
			c-0.6-0.8-1.6-1.3-2.7-1.3c-1.8,0-3.4,1.4-3.4,3.6s1.6,3.6,3.4,3.6c1.1,0,2.1-0.5,2.7-1.3v1.1h1.1V3.2z M132.2,9.3
			c-1.4,0-2.6-1-2.6-2.7c0-1.7,1.1-2.7,2.6-2.7c1.3,0,2.6,1,2.6,2.7C134.8,8.3,133.5,9.3,132.2,9.3z"/>
		<polygon id="Path_00000105406785618467341140000007488801766751730817_" class="st5" points="139.1,10.1 139.1,0 138.1,0 
			138.1,10.1 		"/>
		<polygon id="Path_00000031209455023223429590000002227154895915762076_" class="st5" points="142.4,10.1 142.4,0 141.3,0 
			141.3,10.1 		"/>
		<path id="Path_00000157268370928121533320000016372208254376094345_" class="st5" d="M42.7,17.1c-1.3,0-2.2,0.7-2.8,1.8v-1.7h-1.1
			v6.9h1.1v-2.7c0-1.9,0.9-3.2,2.8-3.2c0.1,0,0.3,0,0.4,0l0.1-1C43,17.1,42.9,17.1,42.7,17.1z"/>
		<path id="Shape_00000055673482561697586240000002264359814324910748_" class="st5" d="M50.5,20.5C50.4,18.4,49,17,47.1,17
			c-1.9,0-3.6,1.4-3.6,3.6c0,2.2,1.7,3.6,3.5,3.6c1.6,0,2.8-0.8,3.3-2.2l-1-0.2c-0.5,1.1-1.4,1.5-2.4,1.5c-1.2,0-2.4-0.9-2.5-2.5
			h5.9V20.5z M47.1,17.9c1.1,0,2.1,0.7,2.3,2.1h-4.8C44.8,18.7,46,17.9,47.1,17.9z"/>
		<path id="Path_00000012474250428798189940000009197264997984240286_" class="st5" d="M55,23.3c-1.4,0-2.6-1-2.6-2.6
			c0-1.6,1.1-2.6,2.6-2.6c1,0,1.9,0.6,2.3,1.6l1-0.3C57.9,17.9,56.5,17,55,17c-1.9,0-3.6,1.5-3.6,3.6c0,2.2,1.7,3.6,3.6,3.6
			c1.5,0,2.9-0.9,3.3-2.3l-1-0.3C56.9,22.8,56,23.3,55,23.3z"/>
		<path id="Shape_00000044888494881830949940000015265495183197611153_" class="st5" d="M62.9,17c-2.1,0-3.7,1.5-3.7,3.6
			s1.6,3.6,3.7,3.6c2,0,3.7-1.5,3.7-3.6S64.9,17,62.9,17z M62.9,23.3c-1.4,0-2.6-1.1-2.6-2.7c0-1.6,1.2-2.7,2.6-2.7
			c1.4,0,2.6,1.1,2.6,2.7C65.5,22.2,64.3,23.3,62.9,23.3z"/>
		<path id="Path_00000108294024816826898540000005516581593415317147_" class="st5" d="M71.9,17.1c-1.3,0-2.2,0.7-2.8,1.8v-1.7H68
			v6.9h1.1v-2.7c0-1.9,0.9-3.2,2.8-3.2c0.1,0,0.3,0,0.4,0l0.1-1C72.2,17.1,72.1,17.1,71.9,17.1z"/>
		<path id="Shape_00000026162491060612641360000017659788078389156286_" class="st5" d="M79.9,14h-1.1v4.3c-0.6-0.8-1.6-1.3-2.7-1.3
			c-1.8,0-3.4,1.4-3.4,3.6s1.6,3.6,3.4,3.6c1.1,0,2.1-0.5,2.7-1.3v1.1h1.1V14z M76.3,23.3c-1.4,0-2.6-1-2.6-2.7
			c0-1.7,1.1-2.7,2.6-2.7c1.3,0,2.6,1,2.6,2.7C78.8,22.3,77.6,23.3,76.3,23.3z"/>
		<path id="Shape_00000116915359219984004140000007683262292030177690_" class="st5" d="M82.7,14.4c-0.4,0-0.7,0.3-0.7,0.7
			c0,0.4,0.3,0.7,0.7,0.7s0.7-0.3,0.7-0.7C83.5,14.7,83.1,14.4,82.7,14.4z M83.3,24.1v-6.9h-1.1v6.9H83.3z"/>
		<path id="Path_00000137118557514376424300000017420383754133140616_" class="st5" d="M89.2,17c-1.2,0-2,0.5-2.6,1.3v-1.1h-1.1v6.9
			h1.1v-3.3c0-1.8,1-2.8,2.4-2.8c1.1,0,1.9,0.9,1.9,2.2v3.9H92V20C92,18.2,90.9,17,89.2,17z"/>
		<path id="Shape_00000016791470905173332050000015041909894560653967_" class="st5" d="M100.4,17.2h-1v1c-0.6-0.7-1.4-1.1-2.6-1.1
			c-1.8,0-3.4,1.4-3.4,3.3c0,2,1.6,3.3,3.4,3.3c1.1,0,2-0.4,2.6-1.1v0.8c0,1.5-1,2.4-2.4,2.4c-1.3,0-2-0.5-2.5-1.4l-0.9,0.6
			c0.5,1.1,1.7,1.8,3.4,1.8c2.1,0,3.5-1.2,3.5-3.2L100.4,17.2z M96.9,22.8c-1.4,0-2.5-1-2.5-2.4c0-1.5,1.1-2.4,2.5-2.4
			c1.3,0,2.4,0.9,2.4,2.4C99.4,21.8,98.2,22.8,96.9,22.8z"/>
		<path id="Shape_00000113326548065065255750000015198091578222440125_" class="st5" d="M112.4,17.2h-1.1v1.1
			c-0.6-0.8-1.6-1.3-2.7-1.3c-1.8,0-3.4,1.4-3.4,3.6s1.6,3.6,3.4,3.6c1.1,0,2.1-0.5,2.7-1.3v1.1h1.1V17.2z M108.8,23.3
			c-1.4,0-2.6-1-2.6-2.7c0-1.7,1.1-2.7,2.6-2.7c1.3,0,2.6,1,2.6,2.7C111.3,22.3,110.1,23.3,108.8,23.3z"/>
		<path id="Path_00000034047911529959708080000005286597770854894482_" class="st5" d="M118.3,17c-1.2,0-2,0.5-2.6,1.3v-1.1h-1.1
			v6.9h1.1v-3.3c0-1.8,1-2.8,2.4-2.8c1.1,0,1.9,0.9,1.9,2.2v3.9h1.1V20C121,18.2,119.9,17,118.3,17z"/>
		<path id="Shape_00000158016493469680032780000015927018689728607395_" class="st5" d="M129.7,14h-1.1v4.3
			c-0.6-0.8-1.6-1.3-2.7-1.3c-1.8,0-3.4,1.4-3.4,3.6s1.6,3.6,3.4,3.6c1.1,0,2.1-0.5,2.7-1.3v1.1h1.1V14z M126,23.3
			c-1.4,0-2.6-1-2.6-2.7c0-1.7,1.1-2.7,2.6-2.7c1.3,0,2.6,1,2.6,2.7C128.6,22.3,127.3,23.3,126,23.3z"/>
		<path id="Path_00000152257232607471172780000015639298553999029431_" class="st5" d="M9.6,36.8c-0.4,0.3-0.8,0.4-1.2,0.4
			c-0.8,0-1.3-0.5-1.3-1.4v-3.8h2.5v-0.9H7.2V29H6.1v2.2H4.6v0.9h1.5v3.8c0,1.5,0.9,2.3,2.3,2.3c0.6,0,1-0.2,1.6-0.5L9.6,36.8z"/>
		<path id="Path_00000135663881031714722640000014172893161832262814_" class="st5" d="M14.9,31.1c-1.3,0-2.2,0.7-2.8,1.8v-1.7h-1.1
			v6.9h1.1v-2.7c0-1.9,0.9-3.2,2.8-3.2c0.1,0,0.3,0,0.4,0l0.1-1C15.2,31.1,15.1,31.1,14.9,31.1z"/>
		<path id="Shape_00000114775661552439143910000013757232361753253297_" class="st5" d="M22.9,31.2h-1.1v1.1
			c-0.6-0.8-1.6-1.3-2.7-1.3c-1.8,0-3.4,1.4-3.4,3.6c0,2.2,1.6,3.6,3.4,3.6c1.1,0,2.1-0.5,2.7-1.3v1.1h1.1V31.2z M19.3,37.3
			c-1.4,0-2.6-1-2.6-2.7c0-1.7,1.1-2.7,2.6-2.7c1.3,0,2.6,1,2.6,2.7C21.9,36.3,20.6,37.3,19.3,37.3z"/>
		<path id="Path_00000023972009603931669350000011800952091630114492_" class="st5" d="M28.8,31c-1.2,0-2,0.5-2.6,1.3v-1.1h-1.1v6.9
			h1.1v-3.3c0-1.8,1-2.8,2.4-2.8c1.1,0,1.9,0.9,1.9,2.2v3.9h1.1V34C31.6,32.2,30.5,31,28.8,31z"/>
		<path id="Path_00000076586649053002332850000015177141189402270611_" class="st5" d="M33,36.2c0.2,1.3,1.4,2,3,2
			c1.7,0,2.8-0.8,2.8-2.1c0-1-0.8-1.6-1.8-1.8L35.3,34c-0.7-0.2-1-0.4-1-1c0-0.7,0.5-1.1,1.5-1.1c1,0,1.7,0.5,1.8,1.3l1-0.2
			c-0.3-1.1-1.3-1.9-2.8-1.9c-1.6,0-2.6,0.8-2.6,2.1c0,1,0.6,1.5,1.8,1.8l1.6,0.3c0.7,0.2,1.1,0.4,1.1,1c0,0.7-0.7,1.2-1.7,1.2
			c-1.1,0-1.9-0.5-2-1.4L33,36.2z"/>
		<path id="Path_00000005952174763277841720000011298541316883306885_" class="st5" d="M43.4,37.3c-1.4,0-2.6-1-2.6-2.6
			c0-1.6,1.1-2.6,2.6-2.6c1,0,1.9,0.6,2.3,1.6l1-0.3c-0.4-1.4-1.8-2.3-3.3-2.3c-1.9,0-3.6,1.5-3.6,3.6c0,2.2,1.7,3.6,3.6,3.6
			c1.5,0,2.9-0.9,3.3-2.3l-1-0.3C45.3,36.8,44.4,37.3,43.4,37.3z"/>
		<path id="Path_00000139288289346422304420000006125706108856042934_" class="st5" d="M52,31.1c-1.3,0-2.2,0.7-2.8,1.8v-1.7h-1.1
			v6.9h1.1v-2.7c0-1.9,0.9-3.2,2.8-3.2c0.1,0,0.3,0,0.4,0l0.1-1C52.3,31.1,52.2,31.1,52,31.1z"/>
		<path id="Shape_00000092457723667182462500000014377607955416863673_" class="st5" d="M54.3,28.4c-0.4,0-0.7,0.3-0.7,0.7
			c0,0.4,0.3,0.7,0.7,0.7c0.4,0,0.7-0.3,0.7-0.7C55,28.7,54.7,28.4,54.3,28.4z M54.8,38.1v-6.9h-1.1v6.9H54.8z"/>
		<path id="Shape_00000021840909348473304980000008722746600163066046_" class="st5" d="M60.9,31c-1.1,0-2.1,0.5-2.7,1.3v-1.1h-1.1
			v9.3h1.1V37c0.6,0.8,1.6,1.3,2.7,1.3c1.8,0,3.4-1.4,3.4-3.6C64.4,32.5,62.8,31,60.9,31z M60.8,37.3c-1.3,0-2.6-1-2.6-2.7
			c0-1.7,1.3-2.7,2.6-2.7c1.4,0,2.6,1,2.6,2.7C63.4,36.3,62.2,37.3,60.8,37.3z"/>
		<path id="Path_00000135676115648984368510000008218389433126722999_" class="st5" d="M69.7,36.8c-0.3,0.3-0.8,0.4-1.2,0.4
			c-0.8,0-1.3-0.5-1.3-1.4v-3.8h2.5v-0.9h-2.5V29h-1.1v2.2h-1.5v0.9h1.5v3.8c0,1.5,0.9,2.3,2.3,2.3c0.6,0,1-0.2,1.6-0.5L69.7,36.8z"
			/>
		<path id="Shape_00000111187809460567900040000004862306991766441873_" class="st5" d="M71.8,28.4c-0.4,0-0.7,0.3-0.7,0.7
			c0,0.4,0.3,0.7,0.7,0.7c0.4,0,0.7-0.3,0.7-0.7C72.6,28.7,72.2,28.4,71.8,28.4z M72.4,38.1v-6.9h-1.1v6.9H72.4z"/>
		<path id="Shape_00000000926074977607135300000004355622029028131727_" class="st5" d="M77.7,31c-2.1,0-3.7,1.5-3.7,3.6
			c0,2.1,1.6,3.6,3.7,3.6c2,0,3.7-1.5,3.7-3.6C81.4,32.5,79.7,31,77.7,31z M77.7,37.3c-1.4,0-2.6-1.1-2.6-2.7c0-1.6,1.2-2.7,2.6-2.7
			c1.4,0,2.6,1.1,2.6,2.7C80.3,36.2,79.1,37.3,77.7,37.3z"/>
		<path id="Path_00000047035676359958043320000010247711089450784701_" class="st5" d="M86.6,31c-1.2,0-2,0.5-2.6,1.3v-1.1h-1.1v6.9
			H84v-3.3c0-1.8,1-2.8,2.4-2.8c1.1,0,1.9,0.9,1.9,2.2v3.9h1.1V34C89.3,32.2,88.2,31,86.6,31z"/>
		<path id="Path_00000083767055389207284890000009762323959789960597_" class="st5" d="M94,36.2c0.2,1.3,1.4,2,3,2
			c1.7,0,2.8-0.8,2.8-2.1c0-1-0.8-1.6-1.8-1.8L96.4,34c-0.7-0.2-1.1-0.4-1.1-1c0-0.7,0.5-1.1,1.5-1.1c1,0,1.7,0.5,1.8,1.3l1-0.2
			c-0.3-1.1-1.3-1.9-2.8-1.9c-1.6,0-2.6,0.8-2.6,2.1c0,1,0.6,1.5,1.8,1.8l1.6,0.3c0.7,0.2,1.1,0.4,1.1,1c0,0.7-0.7,1.2-1.7,1.2
			c-1.1,0-1.9-0.5-2-1.4L94,36.2z"/>
		<path id="Path_00000062904742350083536640000006844654147824763542_" class="st5" d="M105.2,36.8c-0.4,0.3-0.8,0.4-1.2,0.4
			c-0.8,0-1.3-0.5-1.3-1.4v-3.8h2.5v-0.9h-2.5V29h-1.1v2.2h-1.5v0.9h1.5v3.8c0,1.5,0.9,2.3,2.3,2.3c0.6,0,1-0.2,1.6-0.5L105.2,36.8z
			"/>
		<path id="Path_00000124875886983678948910000018011210741842002607_" class="st5" d="M110.5,31.1c-1.3,0-2.2,0.7-2.8,1.8v-1.7
			h-1.1v6.9h1.1v-2.7c0-1.9,0.9-3.2,2.8-3.2c0.1,0,0.3,0,0.4,0l0.1-1C110.8,31.1,110.7,31.1,110.5,31.1z"/>
		<path id="Shape_00000083052479868766738790000006764661593851604401_" class="st5" d="M118.3,34.5c-0.1-2.1-1.5-3.4-3.4-3.4
			c-1.9,0-3.6,1.4-3.6,3.6c0,2.2,1.7,3.6,3.5,3.6c1.6,0,2.8-0.8,3.3-2.2l-1-0.2c-0.5,1.1-1.4,1.5-2.4,1.5c-1.2,0-2.4-0.9-2.5-2.5
			h5.9V34.5z M114.9,31.9c1.1,0,2.1,0.7,2.3,2.1h-4.8C112.6,32.7,113.8,31.9,114.9,31.9z"/>
		<path id="Shape_00000040557099241359355920000002069513314425904538_" class="st5" d="M126.4,31.2h-1.1v1.1
			c-0.6-0.8-1.6-1.3-2.7-1.3c-1.8,0-3.4,1.4-3.4,3.6c0,2.2,1.6,3.6,3.4,3.6c1.1,0,2.1-0.5,2.7-1.3v1.1h1.1V31.2z M122.7,37.3
			c-1.4,0-2.6-1-2.6-2.7c0-1.7,1.1-2.7,2.6-2.7c1.3,0,2.6,1,2.6,2.7C125.3,36.3,124,37.3,122.7,37.3z"/>
		<path id="Path_00000081637577706499536990000005716845259939017663_" class="st5" d="M136.9,31c-1.2,0-2.1,0.5-2.6,1.4
			c-0.4-0.9-1.3-1.4-2.4-1.4c-1.1,0-1.9,0.5-2.4,1.2v-1.1h-1.1v6.9h1.1v-3.5c0-1.6,0.8-2.6,2.1-2.6c1,0,1.8,0.7,1.8,1.8v4.3h1.1
			v-3.5c0-1.6,0.8-2.6,2.1-2.6c1,0,1.8,0.7,1.8,1.8v4.3h1.1v-4.5C139.5,32,138.4,31,136.9,31z"/>
		<path id="Path_00000039855352332459427310000004017525097454527932_" class="st5" d="M140.9,36.2c0.2,1.3,1.4,2,3,2
			c1.7,0,2.8-0.8,2.8-2.1c0-1-0.8-1.6-1.8-1.8l-1.7-0.4c-0.7-0.2-1.1-0.4-1.1-1c0-0.7,0.5-1.1,1.5-1.1c1,0,1.7,0.5,1.8,1.3l1-0.2
			c-0.3-1.1-1.3-1.9-2.8-1.9c-1.6,0-2.6,0.8-2.6,2.1c0,1,0.6,1.5,1.8,1.8l1.6,0.3c0.7,0.2,1.1,0.4,1.1,1c0,0.7-0.7,1.2-1.7,1.2
			c-1.1,0-1.9-0.5-2-1.4L140.9,36.2z"/>
		<path id="Path_00000152251068538306836560000004691960559333806257_" class="st5" d="M155.4,36.8c-0.3,0.3-0.8,0.4-1.2,0.4
			c-0.8,0-1.3-0.5-1.3-1.4v-3.8h2.5v-0.9h-2.5V29h-1.1v2.2h-1.5v0.9h1.5v3.8c0,1.5,0.9,2.3,2.3,2.3c0.6,0,1-0.2,1.6-0.5L155.4,36.8z
			"/>
		<path id="Shape_00000062183456970092596580000014287164134433007519_" class="st5" d="M159.6,31c-2.1,0-3.7,1.5-3.7,3.6
			c0,2.1,1.6,3.6,3.7,3.6c2,0,3.7-1.5,3.7-3.6C163.3,32.5,161.7,31,159.6,31z M159.6,37.3c-1.4,0-2.6-1.1-2.6-2.7
			c0-1.6,1.2-2.7,2.6-2.7c1.4,0,2.6,1.1,2.6,2.7C162.3,36.2,161.1,37.3,159.6,37.3z"/>
		<path id="Shape_00000016786942415209816500000011565968256340968584_" class="st5" d="M7.3,45.2H6.2v1.1C5.6,45.5,4.6,45,3.4,45
			C1.6,45,0,46.5,0,48.6c0,2.2,1.6,3.6,3.4,3.6c1.1,0,2.1-0.5,2.7-1.3v1.1h1.1V45.2z M3.6,51.3c-1.4,0-2.6-1-2.6-2.7
			c0-1.7,1.1-2.7,2.6-2.7c1.3,0,2.6,1,2.6,2.7C6.2,50.3,4.9,51.3,3.6,51.3z"/>
		<polygon id="Path_00000065059526340613395660000010158210831539404988_" class="st5" points="10.5,52.1 10.5,42 9.4,42 9.4,52.1 
					"/>
		<polygon id="Path_00000022539314711220824880000018331511479496006296_" class="st5" points="13.7,52.1 13.7,42 12.7,42 
			12.7,52.1 		"/>
		<path id="Shape_00000016796717732658339030000006749228223551722389_" class="st5" d="M19,45c-2.1,0-3.7,1.5-3.7,3.6
			c0,2.1,1.6,3.6,3.7,3.6c2,0,3.7-1.5,3.7-3.6C22.6,46.5,21,45,19,45z M19,51.3c-1.4,0-2.6-1.1-2.6-2.7c0-1.6,1.2-2.7,2.6-2.7
			c1.4,0,2.6,1.1,2.6,2.7C21.6,50.2,20.4,51.3,19,51.3z"/>
		<polygon id="Path_00000130643412490181024400000008937751059618879138_" class="st5" points="33.4,45.2 32.3,45.2 30.5,50.5 
			28.7,45.2 27.8,45.2 26,50.5 24.2,45.2 23.1,45.2 25.5,52.1 26.5,52.1 28.3,46.9 30.1,52.1 31.1,52.1 		"/>
		<path id="Path_00000160185033008890873520000006820324423730444182_" class="st5" d="M40.8,51.3c-1.4,0-2.6-1-2.6-2.6
			c0-1.6,1.1-2.6,2.6-2.6c1,0,1.9,0.6,2.3,1.6l1-0.3c-0.4-1.4-1.8-2.3-3.3-2.3c-1.9,0-3.6,1.5-3.6,3.6c0,2.2,1.7,3.6,3.6,3.6
			c1.5,0,2.9-0.9,3.3-2.3l-1-0.3C42.8,50.8,41.8,51.3,40.8,51.3z"/>
		<path id="Path_00000077321001273291387660000004111943618971527561_" class="st5" d="M51.9,45.2h-1.1v3.3c0,1.8-1,2.8-2.4,2.8
			c-1.1,0-1.9-0.9-1.9-2.1v-3.9h-1.1v4.1c0,1.8,1.1,2.9,2.8,2.9c1.1,0,2-0.5,2.6-1.3v1.1h1.1V45.2z"/>
		<path id="Path_00000133489650304530987210000017656122644349003671_" class="st5" d="M53.4,50.2c0.2,1.3,1.4,2,3,2
			c1.7,0,2.8-0.8,2.8-2.1c0-1-0.8-1.6-1.8-1.8L55.7,48c-0.7-0.2-1-0.4-1-1c0-0.7,0.5-1.1,1.5-1.1c1,0,1.7,0.5,1.8,1.3l1-0.2
			c-0.3-1.1-1.3-1.9-2.8-1.9c-1.6,0-2.6,0.8-2.6,2.1c0,1,0.6,1.5,1.8,1.8l1.6,0.3c0.7,0.2,1.1,0.4,1.1,1c0,0.7-0.7,1.2-1.7,1.2
			c-1.1,0-1.9-0.5-2-1.4L53.4,50.2z"/>
		<path id="Path_00000085965940764151850970000014185232624473074560_" class="st5" d="M64.6,50.8c-0.3,0.3-0.8,0.4-1.2,0.4
			c-0.8,0-1.3-0.5-1.3-1.4v-3.8h2.5v-0.9h-2.5V43h-1.1v2.2h-1.5v0.9h1.5v3.8c0,1.5,0.9,2.3,2.3,2.3c0.6,0,1-0.2,1.6-0.5L64.6,50.8z"
			/>
		<path id="Shape_00000015345139218311351050000009366352700266240425_" class="st5" d="M68.9,45c-2.1,0-3.7,1.5-3.7,3.6
			c0,2.1,1.6,3.6,3.7,3.6c2,0,3.7-1.5,3.7-3.6C72.5,46.5,70.9,45,68.9,45z M68.9,51.3c-1.4,0-2.6-1.1-2.6-2.7c0-1.6,1.2-2.7,2.6-2.7
			c1.4,0,2.6,1.1,2.6,2.7C71.5,50.2,70.3,51.3,68.9,51.3z"/>
		<path id="Path_00000050645612826752100290000009735540515051689368_" class="st5" d="M82.4,45c-1.2,0-2.1,0.5-2.6,1.4
			c-0.4-0.9-1.3-1.4-2.4-1.4c-1.1,0-1.9,0.5-2.4,1.2v-1H74v6.9h1.1v-3.5c0-1.6,0.8-2.6,2.1-2.6c1,0,1.8,0.7,1.8,1.8v4.3H80v-3.5
			c0-1.6,0.8-2.6,2.1-2.6c1,0,1.8,0.7,1.8,1.8v4.3H85v-4.5C85,46,83.9,45,82.4,45z"/>
		<path id="Shape_00000146473159595062490160000015708061287648031130_" class="st5" d="M93.3,48.5c-0.1-2.1-1.5-3.4-3.4-3.4
			c-1.9,0-3.6,1.4-3.6,3.6c0,2.2,1.7,3.6,3.5,3.6c1.6,0,2.8-0.8,3.3-2.2l-1-0.2c-0.5,1.1-1.4,1.5-2.4,1.5c-1.2,0-2.4-0.9-2.5-2.5
			h5.9V48.5z M89.9,45.9c1.1,0,2.1,0.7,2.3,2.1h-4.8C87.7,46.7,88.8,45.9,89.9,45.9z"/>
		<path id="Path_00000139998375540511844540000001643162255452001679_" class="st5" d="M98.7,45.1c-1.3,0-2.2,0.7-2.8,1.8v-1.7h-1.1
			v6.9H96v-2.7c0-1.9,0.9-3.2,2.8-3.2c0.1,0,0.3,0,0.4,0l0.1-1C99,45.1,98.9,45.1,98.7,45.1z"/>
		<path id="Path_00000079466676191463002840000009754083471679822768_" class="st5" d="M99.7,50.2c0.2,1.3,1.4,2,3,2
			c1.7,0,2.8-0.8,2.8-2.1c0-1-0.8-1.6-1.8-1.8L102,48c-0.7-0.2-1-0.4-1-1c0-0.7,0.5-1.1,1.5-1.1c1,0,1.7,0.5,1.8,1.3l1-0.2
			c-0.3-1.1-1.3-1.9-2.8-1.9c-1.6,0-2.6,0.8-2.6,2.1c0,1,0.6,1.5,1.8,1.8l1.6,0.3c0.7,0.2,1.1,0.4,1.1,1c0,0.7-0.7,1.2-1.7,1.2
			c-1.1,0-1.9-0.5-2-1.4L99.7,50.2z"/>
		<path id="Path_00000054238455822162876390000014688397794370279068_" class="st5" d="M114.1,50.8c-0.3,0.3-0.8,0.4-1.2,0.4
			c-0.8,0-1.3-0.5-1.3-1.4v-3.8h2.5v-0.9h-2.5V43h-1.1v2.2h-1.5v0.9h1.5v3.8c0,1.5,0.9,2.3,2.3,2.3c0.6,0,1-0.2,1.6-0.5L114.1,50.8z
			"/>
		<path id="Shape_00000124124888905670118920000017470099299182072712_" class="st5" d="M118.4,45c-2.1,0-3.7,1.5-3.7,3.6
			c0,2.1,1.6,3.6,3.7,3.6c2,0,3.7-1.5,3.7-3.6C122,46.5,120.4,45,118.4,45z M118.4,51.3c-1.4,0-2.6-1.1-2.6-2.7
			c0-1.6,1.2-2.7,2.6-2.7c1.4,0,2.6,1.1,2.6,2.7C121,50.2,119.8,51.3,118.4,51.3z"/>
		<path id="Path_00000055703759771592073500000010816154722708252572_" class="st5" d="M130.7,45.1c-1.3,0-2.2,0.7-2.8,1.8v-1.7
			h-1.1v6.9h1.1v-2.7c0-1.9,0.9-3.2,2.8-3.2c0.1,0,0.3,0,0.4,0l0.1-1C131,45.1,130.8,45.1,130.7,45.1z"/>
		<path id="Shape_00000058562287471529634550000012815017375054198458_" class="st5" d="M138.5,48.5c-0.1-2.1-1.5-3.4-3.4-3.4
			c-1.9,0-3.6,1.4-3.6,3.6c0,2.2,1.7,3.6,3.5,3.6c1.6,0,2.8-0.8,3.3-2.2l-1-0.2c-0.5,1.1-1.4,1.5-2.4,1.5c-1.2,0-2.4-0.9-2.5-2.5
			h5.9V48.5z M135.1,45.9c1.1,0,2.1,0.7,2.3,2.1h-4.8C132.8,46.7,134,45.9,135.1,45.9z"/>
		<path id="Shape_00000144330515588497292300000014301780864406374568_" class="st5" d="M146.6,45.2h-1.1v1.1
			c-0.6-0.8-1.6-1.3-2.7-1.3c-1.8,0-3.4,1.4-3.4,3.6c0,2.2,1.6,3.6,3.4,3.6c1.1,0,2.1-0.5,2.7-1.3v1.1h1.1V45.2z M142.9,51.3
			c-1.4,0-2.6-1-2.6-2.7c0-1.7,1.1-2.7,2.6-2.7c1.3,0,2.6,1,2.6,2.7C145.5,50.3,144.2,51.3,142.9,51.3z"/>
		<polygon id="Path_00000048466795664209873310000017678917664950273697_" class="st5" points="149.8,52.1 149.8,42 148.8,42 
			148.8,52.1 		"/>
		<path id="Shape_00000123415400527679820090000004473471671113188776_" class="st5" d="M152.6,42.4c-0.4,0-0.7,0.3-0.7,0.7
			c0,0.4,0.3,0.7,0.7,0.7s0.7-0.3,0.7-0.7C153.4,42.7,153.1,42.4,152.6,42.4z M153.2,52.1v-6.9h-1.1v6.9H153.2z"/>
		<polygon id="Path_00000169531131802618315700000011197091251062720663_" class="st5" points="160.8,51.2 156.1,51.2 160.6,45.9 
			160.6,45.2 154.9,45.2 154.9,46.1 159.3,46.1 154.8,51.4 154.8,52.1 160.8,52.1 		"/>
		<path id="Shape_00000179628975627932760410000012078418594590915257_" class="st5" d="M168.4,48.5c-0.1-2.1-1.5-3.4-3.4-3.4
			c-1.9,0-3.6,1.4-3.6,3.6c0,2.2,1.7,3.6,3.5,3.6c1.6,0,2.8-0.8,3.3-2.2l-1-0.2c-0.5,1.1-1.4,1.5-2.4,1.5c-1.2,0-2.4-0.9-2.5-2.5
			h5.9V48.5z M165,45.9c1.1,0,2.1,0.7,2.3,2.1h-4.8C162.8,46.7,163.9,45.9,165,45.9z"/>
		<path id="Path_00000008851051075425184690000007905431317781778331_" class="st5" d="M25,64.8c-0.4,0.3-0.8,0.4-1.2,0.4
			c-0.8,0-1.3-0.5-1.3-1.4v-3.8H25v-0.9h-2.5V57h-1.1v2.2H20v0.9h1.5v3.8c0,1.5,0.9,2.3,2.3,2.3c0.6,0,1-0.2,1.6-0.5L25,64.8z"/>
		<path id="Path_00000177448154359797038000000002918963515257443474_" class="st5" d="M30.1,59c-1.2,0-2,0.5-2.6,1.3V56h-1.1v10.1
			h1.1v-3.3c0-1.8,1-2.8,2.4-2.8c1.1,0,1.9,0.9,1.9,2.2v3.9h1.1V62C32.9,60.2,31.8,59,30.1,59z"/>
		<path id="Shape_00000116925626326842916190000002398058346580499877_" class="st5" d="M41.2,62.5c-0.1-2.1-1.5-3.4-3.4-3.4
			c-1.9,0-3.6,1.4-3.6,3.6c0,2.2,1.7,3.6,3.5,3.6c1.6,0,2.8-0.8,3.3-2.2l-1-0.2c-0.5,1.1-1.4,1.5-2.4,1.5c-1.2,0-2.4-0.9-2.5-2.5
			h5.9V62.5z M37.8,59.9c1.1,0,2.1,0.7,2.3,2.1h-4.8C35.6,60.7,36.7,59.9,37.8,59.9z"/>
		<polygon id="Path_00000092418544874355062330000008012695153217685673_" class="st5" points="52.3,59.2 51.2,59.2 48.7,64.8 
			46.2,59.2 45.1,59.2 48.1,66.1 49.3,66.1 		"/>
		<path id="Shape_00000070076511850527656170000003562157168731359107_" class="st5" d="M59.8,59.2h-1.1v1.1
			C58.2,59.5,57.2,59,56,59c-1.8,0-3.4,1.4-3.4,3.6c0,2.2,1.6,3.6,3.4,3.6c1.1,0,2.1-0.5,2.7-1.3v1.1h1.1V59.2z M56.2,65.3
			c-1.4,0-2.6-1-2.6-2.7c0-1.7,1.1-2.7,2.6-2.7c1.3,0,2.6,1,2.6,2.7C58.8,64.3,57.5,65.3,56.2,65.3z"/>
		<polygon id="Path_00000135659795620510527660000015137180040456274051_" class="st5" points="63.1,66.1 63.1,56 62,56 62,66.1 		
			"/>
		<path id="Path_00000023983901768830725420000018261578445450747783_" class="st5" d="M71.6,59.2h-1.1v3.3c0,1.8-1,2.8-2.4,2.8
			c-1.1,0-1.9-0.9-1.9-2.1v-3.9h-1.1v4.1c0,1.8,1.1,2.9,2.8,2.9c1.1,0,2-0.5,2.6-1.3v1.1h1.1V59.2z"/>
		<path id="Shape_00000167393296702089469100000001917417750546366131_" class="st5" d="M80.1,62.5C80,60.4,78.5,59,76.7,59
			c-1.9,0-3.6,1.4-3.6,3.6c0,2.2,1.7,3.6,3.5,3.6c1.6,0,2.8-0.8,3.3-2.2l-1-0.2c-0.5,1.1-1.4,1.5-2.4,1.5c-1.2,0-2.4-0.9-2.5-2.5
			h5.9V62.5z M76.7,59.9c1.1,0,2.1,0.7,2.3,2.1h-4.8C74.4,60.7,75.6,59.9,76.7,59.9z"/>
		<path id="Shape_00000060012512029454792750000010562488305238696894_" class="st5" d="M87.9,59c-2.1,0-3.7,1.5-3.7,3.6
			c0,2.1,1.6,3.6,3.7,3.6c2,0,3.7-1.5,3.7-3.6C91.6,60.5,89.9,59,87.9,59z M87.9,65.3c-1.4,0-2.6-1.1-2.6-2.7c0-1.6,1.2-2.7,2.6-2.7
			c1.4,0,2.6,1.1,2.6,2.7C90.5,64.2,89.3,65.3,87.9,65.3z"/>
		<path id="Path_00000085237304884751036740000004276555042408944038_" class="st5" d="M96.9,60.1v-0.9h-2.5v-1
			c0-0.9,0.5-1.4,1.4-1.4c0.3,0,0.5,0.1,0.8,0.2l0.3-0.9c-0.3-0.2-0.7-0.3-1.1-0.3c-1.4,0-2.4,0.9-2.4,2.4v1h-1.2v0.9h1.2v6h1.1v-6
			H96.9z"/>
		<path id="Path_00000126293373489495457040000009188360031735631234_" class="st5" d="M104.1,56.5c-2,0-3.3,1.1-3.3,2.7
			c0,1.5,1,2.1,2.3,2.4l2.1,0.5c1.1,0.2,1.5,0.6,1.5,1.5c0,1-0.9,1.7-2.3,1.7c-1.5,0-2.5-0.7-2.7-2.1l-1.2,0.2
			c0.2,1.8,1.8,2.8,3.8,2.8c2.1,0,3.5-1.1,3.5-2.8c0-1.5-1.1-2.2-2.4-2.4l-2-0.5c-0.9-0.2-1.4-0.6-1.4-1.4c0-1,0.9-1.7,2.1-1.7
			c1.3,0,2.2,0.7,2.4,1.9l1.1-0.3C107.3,57.6,106,56.5,104.1,56.5z"/>
		<path id="Shape_00000047043999381515089800000002253902841694889652_" class="st5" d="M115.8,62.5c-0.1-2.1-1.5-3.4-3.4-3.4
			c-1.9,0-3.6,1.4-3.6,3.6c0,2.2,1.7,3.6,3.5,3.6c1.6,0,2.8-0.8,3.3-2.2l-1-0.2c-0.5,1.1-1.4,1.5-2.4,1.5c-1.2,0-2.4-0.9-2.5-2.5
			h5.9V62.5z M112.4,59.9c1.1,0,2.1,0.7,2.3,2.1h-4.8C110.1,60.7,111.3,59.9,112.4,59.9z"/>
		<path id="Path_00000114045316012804095260000002501987878506343089_" class="st5" d="M121.2,59.1c-1.3,0-2.2,0.7-2.8,1.8v-1.7
			h-1.1v6.9h1.1v-2.7c0-1.9,0.9-3.2,2.8-3.2c0.1,0,0.3,0,0.4,0l0.1-1C121.5,59.1,121.4,59.1,121.2,59.1z"/>
		<polygon id="Path_00000096740602951473329570000005325090923069785008_" class="st5" points="129.1,59.2 128,59.2 125.5,64.8 
			123,59.2 121.9,59.2 124.9,66.1 126.1,66.1 		"/>
		<path id="Shape_00000128443756354583872020000003606973058731339410_" class="st5" d="M131,56.4c-0.4,0-0.7,0.3-0.7,0.7
			c0,0.4,0.3,0.7,0.7,0.7c0.4,0,0.7-0.3,0.7-0.7C131.7,56.7,131.4,56.4,131,56.4z M131.5,66.1v-6.9h-1.1v6.9H131.5z"/>
		<path id="Path_00000147926736428619553500000006821084538045363356_" class="st5" d="M136.8,65.3c-1.4,0-2.6-1-2.6-2.6
			c0-1.6,1.1-2.6,2.6-2.6c1,0,1.9,0.6,2.3,1.6l1-0.3c-0.4-1.4-1.8-2.3-3.3-2.3c-1.9,0-3.6,1.5-3.6,3.6c0,2.2,1.7,3.6,3.6,3.6
			c1.5,0,2.9-0.9,3.3-2.3l-1-0.3C138.7,64.8,137.8,65.3,136.8,65.3z"/>
		<path id="Shape_00000152252000669212142740000010732815538825544625_" class="st5" d="M147.9,62.5c-0.1-2.1-1.5-3.4-3.4-3.4
			c-1.9,0-3.6,1.4-3.6,3.6c0,2.2,1.7,3.6,3.5,3.6c1.6,0,2.8-0.8,3.3-2.2l-1-0.2c-0.5,1.1-1.4,1.5-2.4,1.5c-1.2,0-2.4-0.9-2.5-2.5
			h5.9V62.5z M144.6,59.9c1.1,0,2.1,0.7,2.3,2.1h-4.8C142.3,60.7,143.4,59.9,144.6,59.9z"/>
		<path id="Path_00000038384119604477189730000016445061229282245819_" class="st5" d="M50.4,79.2c-2.1,0-3.8-1.7-3.8-3.8
			c0-2.2,1.7-3.8,3.8-3.8c1.6,0,2.9,0.9,3.4,2.4l1.1-0.3c-0.6-1.9-2.3-3.1-4.5-3.1c-2.7,0-4.9,2.1-4.9,4.9c0,2.7,2.1,4.9,4.9,4.9
			c2.2,0,3.9-1.2,4.5-3.2l-1.1-0.3C53.3,78.4,52,79.2,50.4,79.2z"/>
		<polygon id="Path_00000033359113067565501460000007170839207983848601_" class="st5" points="57.7,80.1 57.7,70 56.6,70 
			56.6,80.1 		"/>
		<path id="Shape_00000147207733554311152570000012770680207803025850_" class="st5" d="M62.9,73c-2.1,0-3.7,1.5-3.7,3.6
			s1.6,3.6,3.7,3.6c2,0,3.7-1.5,3.7-3.6S64.9,73,62.9,73z M62.9,79.3c-1.4,0-2.6-1.1-2.6-2.7c0-1.6,1.2-2.7,2.6-2.7
			c1.4,0,2.6,1.1,2.6,2.7C65.5,78.2,64.3,79.3,62.9,79.3z"/>
		<path id="Path_00000058577328757918221420000012119988246239542945_" class="st5" d="M74.4,73.2h-1.1v3.3c0,1.8-1,2.8-2.4,2.8
			c-1.1,0-1.9-0.9-1.9-2.1v-3.9h-1.1v4.1c0,1.8,1.1,2.9,2.8,2.9c1.1,0,2-0.5,2.6-1.3v1.1h1.1V73.2z"/>
		<path id="Shape_00000007412678596980938920000004070214675682361472_" class="st5" d="M83.2,70h-1.1v4.3c-0.6-0.8-1.6-1.3-2.7-1.3
			c-1.8,0-3.4,1.4-3.4,3.6s1.6,3.6,3.4,3.6c1.1,0,2.1-0.5,2.7-1.3v1.1h1.1V70z M79.5,79.3c-1.4,0-2.6-1-2.6-2.7
			c0-1.7,1.1-2.7,2.6-2.7c1.3,0,2.6,1,2.6,2.7C82.1,78.3,80.8,79.3,79.5,79.3z"/>
		<polygon id="Path_00000174586481142295061140000012969231347750502818_" class="st5" points="96.9,70.7 95.7,70.7 92.2,78.6 
			88.8,70.7 87.6,70.7 91.7,80.1 92.8,80.1 		"/>
		<path id="Shape_00000130615801137649999520000009799997383789411750_" class="st5" d="M100.3,73c-2.1,0-3.7,1.5-3.7,3.6
			s1.6,3.6,3.7,3.6c2,0,3.7-1.5,3.7-3.6S102.4,73,100.3,73z M100.3,79.3c-1.4,0-2.6-1.1-2.6-2.7c0-1.6,1.2-2.7,2.6-2.7
			c1.4,0,2.6,1.1,2.6,2.7C102.9,78.2,101.7,79.3,100.3,79.3z"/>
		<path id="Shape_00000058578660742247030630000000567003364477949871_" class="st5" d="M106.2,70.4c-0.4,0-0.7,0.3-0.7,0.7
			c0,0.4,0.3,0.7,0.7,0.7s0.7-0.3,0.7-0.7C106.9,70.7,106.6,70.4,106.2,70.4z M106.7,80.1v-6.9h-1.1v6.9H106.7z"/>
		<path id="Path_00000090254584539997570760000006427701303648283311_" class="st5" d="M112,79.3c-1.4,0-2.6-1-2.6-2.6
			c0-1.6,1.1-2.6,2.6-2.6c1,0,1.9,0.6,2.3,1.6l1-0.3c-0.4-1.4-1.8-2.3-3.3-2.3c-1.9,0-3.6,1.5-3.6,3.6c0,2.2,1.7,3.6,3.6,3.6
			c1.5,0,2.9-0.9,3.3-2.3l-1-0.3C113.9,78.8,113,79.3,112,79.3z"/>
		<path id="Shape_00000091725036492945779130000017820811331504001971_" class="st5" d="M123.1,76.5c-0.1-2.1-1.5-3.4-3.4-3.4
			c-1.9,0-3.6,1.4-3.6,3.6c0,2.2,1.7,3.6,3.5,3.6c1.6,0,2.8-0.8,3.3-2.2l-1-0.2c-0.5,1.1-1.4,1.5-2.4,1.5c-1.2,0-2.4-0.9-2.5-2.5
			h5.9V76.5z M119.7,73.9c1.1,0,2.1,0.7,2.3,2.1h-4.8C117.5,74.7,118.6,73.9,119.7,73.9z"/>
	</g>
	<g id="Interaction-records" transform="translate(619.9625, 128.376)">
		<polygon id="Path_00000131334673581737947780000013992307676252249279_" points="1.9,10.2 1.9,0.8 0,0.8 0,10.2 		"/>
		<path id="Path_00000182523847525752803620000015883287774643642813_" d="M7.6,3C6.7,3,6,3.3,5.4,3.8V3.2H3.6v7h1.8V7.1
			c0-1.7,0.7-2.4,1.7-2.4c0.9,0,1.4,0.7,1.4,1.6v3.9h1.8V5.9C10.4,4.2,9.3,3,7.6,3z"/>
		<path id="Path_00000170967177521862846220000009208747096460576424_" d="M16.5,8.3c-0.4,0.2-0.8,0.3-1.2,0.3c-0.6,0-1-0.4-1-1.2
			V4.7h2.3V3.2h-2.3V1.1h-1.8v2.1h-1.5v1.5h1.5v2.9c0,1.9,1.1,2.8,2.7,2.8c0.6,0,1.1-0.1,1.8-0.5L16.5,8.3z"/>
		<path id="Shape_00000065767833638544850830000010520934504127112882_" d="M24.2,6.6C24.1,4.4,22.5,3,20.6,3c-2,0-3.6,1.5-3.6,3.7
			s1.6,3.7,3.6,3.7c1.5,0,2.8-0.7,3.4-2.2l-1.7-0.4c-0.5,0.9-1.2,0.9-1.7,0.9c-0.9,0-1.6-0.6-1.8-1.6h5.3V6.6z M20.6,4.6
			c0.7,0,1.4,0.4,1.7,1.3h-3.4C19.1,5,19.9,4.6,20.6,4.6z"/>
		<path id="Path_00000099640187696520010810000013119363809429704870_" d="M29.7,3.1c-1.1,0-1.9,0.6-2.5,1.4V3.2h-1.8v7h1.8V7.9
			c0-1.9,0.8-3,2.5-3H30l0.1-1.8C30,3.1,29.8,3.1,29.7,3.1z"/>
		<path id="Shape_00000139277190258196811370000000442234188588509617_" d="M38,3.2h-1.8v0.6C35.5,3.3,34.8,3,33.8,3
			c-1.8,0-3.4,1.5-3.4,3.7s1.7,3.7,3.4,3.7c1,0,1.7-0.3,2.3-0.8v0.5H38V3.2z M34.1,8.8c-1.1,0-2-0.8-2-2.1s0.8-2.1,2-2.1
			c1,0,2,0.8,2,2.1S35.1,8.8,34.1,8.8z"/>
		<path id="Path_00000127728945363213312530000014077873418738102148_" d="M42.8,8.7c-1.2,0-1.9-0.8-1.9-2c0-1.2,0.8-2,1.9-2
			c0.8,0,1.5,0.4,1.7,1.4l1.8-0.5C45.9,4,44.5,3,42.8,3c-2,0-3.7,1.5-3.7,3.7s1.7,3.7,3.7,3.7c1.7,0,3.1-1,3.5-2.6l-1.7-0.4
			C44.3,8.3,43.7,8.7,42.8,8.7z"/>
		<path id="Path_00000088100357684687832200000008000353912876360374_" d="M52,8.3c-0.4,0.2-0.8,0.3-1.2,0.3c-0.6,0-1-0.4-1-1.2V4.7
			h2.3V3.2h-2.3V1.1H48v2.1h-1.5v1.5H48v2.9c0,1.9,1.1,2.8,2.7,2.8c0.6,0,1.1-0.1,1.8-0.5L52,8.3z"/>
		<path id="Shape_00000093165030837176533870000014074984145876222617_" d="M54.3,0c-0.7,0-1.1,0.5-1.1,1.1c0,0.6,0.5,1.1,1.1,1.1
			c0.6,0,1.1-0.5,1.1-1.1C55.4,0.5,54.9,0,54.3,0z M55.2,10.2v-7h-1.8v7H55.2z"/>
		<path id="Shape_00000166651332473249155670000017050660043746852751_" d="M60.2,3c-2.1,0-3.8,1.5-3.8,3.7s1.7,3.7,3.8,3.7
			c2,0,3.8-1.5,3.8-3.7S62.3,3,60.2,3z M60.2,8.8c-1,0-2-0.8-2-2.1s1-2.1,2-2.1c1,0,2,0.8,2,2.1S61.2,8.8,60.2,8.8z"/>
		<path id="Path_00000021082328321554689880000003293981139650675102_" d="M69.2,3c-0.9,0-1.7,0.3-2.2,0.8V3.2h-1.8v7H67V7.1
			c0-1.7,0.7-2.4,1.7-2.4c0.9,0,1.4,0.7,1.4,1.6v3.9H72V5.9C72,4.2,70.8,3,69.2,3z"/>
		<path id="Path_00000083783663764813627180000013107611559706446213_" d="M80.9,3.1c-1.1,0-1.9,0.6-2.5,1.4V3.2h-1.8v7h1.8V7.9
			c0-1.9,0.8-3,2.5-3h0.4l0.1-1.8C81.3,3.1,81.1,3.1,80.9,3.1z"/>
		<path id="Shape_00000028291746070736561790000009349509020055171261_" d="M88.8,6.6C88.8,4.4,87.2,3,85.3,3c-2,0-3.6,1.5-3.6,3.7
			s1.6,3.7,3.6,3.7c1.5,0,2.8-0.7,3.4-2.2L87,7.9c-0.5,0.9-1.2,0.9-1.7,0.9c-0.9,0-1.6-0.6-1.8-1.6h5.3V6.6z M85.3,4.6
			c0.7,0,1.4,0.4,1.7,1.3h-3.4C83.8,5,84.6,4.6,85.3,4.6z"/>
		<path id="Path_00000146460685451492276680000017643882601990722979_" d="M93.1,8.7c-1.2,0-1.9-0.8-1.9-2c0-1.2,0.8-2,1.9-2
			c0.8,0,1.5,0.4,1.7,1.4l1.8-0.5C96.2,4,94.8,3,93.1,3c-2,0-3.7,1.5-3.7,3.7s1.7,3.7,3.7,3.7c1.7,0,3.1-1,3.5-2.6l-1.7-0.4
			C94.6,8.3,93.9,8.7,93.1,8.7z"/>
		<path id="Shape_00000088129752015687354670000011355861072824273309_" d="M101,3c-2.1,0-3.8,1.5-3.8,3.7s1.7,3.7,3.8,3.7
			c2,0,3.8-1.5,3.8-3.7S103,3,101,3z M101,8.8c-1,0-2-0.8-2-2.1s1-2.1,2-2.1c1,0,2,0.8,2,2.1S102,8.8,101,8.8z"/>
		<path id="Path_00000144335492545380207500000013255729061417463439_" d="M110.2,3.1c-1.1,0-1.9,0.6-2.5,1.4V3.2h-1.8v7h1.8V7.9
			c0-1.9,0.8-3,2.5-3h0.4l0.1-1.8C110.6,3.1,110.4,3.1,110.2,3.1z"/>
		<path id="Shape_00000170984274259172948160000006954590817203828873_" d="M118.5,0.1h-1.8v3.7C116,3.3,115.3,3,114.3,3
			c-1.8,0-3.4,1.5-3.4,3.7s1.7,3.7,3.4,3.7c1,0,1.7-0.3,2.3-0.8v0.5h1.8V0.1z M114.6,8.8c-1.1,0-2-0.8-2-2.1s0.8-2.1,2-2.1
			c1,0,2,0.8,2,2.1S115.6,8.8,114.6,8.8z"/>
		<path id="Path_00000088841728212032920560000007240822264157699754_" d="M119.6,8.3c0.2,1.5,1.6,2.1,3.1,2.1
			c1.8,0,3.1-0.8,3.1-2.3c0-0.9-0.6-1.7-1.8-2l-1.7-0.4c-0.5-0.1-0.6-0.4-0.6-0.6c0-0.3,0.2-0.7,1-0.7c0.8,0,1.3,0.4,1.3,1l1.8-0.3
			c-0.2-1.2-1.4-2.1-3-2.1c-1.8,0-2.9,1-2.9,2.3c0,1,0.7,1.7,2,2l1.4,0.3c0.6,0.1,0.8,0.4,0.8,0.6c0,0.4-0.4,0.7-1.1,0.7
			c-0.7,0-1.3-0.2-1.4-1L119.6,8.3z"/>
		<polygon id="Path_00000032642474364927479490000004820905820902028187_" points="52.7,38.8 50.6,38.8 47.8,45.6 44.9,38.8 
			42.8,38.8 46.9,48.2 48.7,48.2 		"/>
		<path id="Shape_00000129205038881168480780000017884620913006368688_" d="M56,41c-2.1,0-3.8,1.5-3.8,3.7c0,2.2,1.7,3.7,3.8,3.7
			c2,0,3.8-1.5,3.8-3.7C59.8,42.5,58,41,56,41z M56,46.8c-1,0-2-0.8-2-2.1c0-1.3,1-2.1,2-2.1c1,0,2,0.8,2,2.1C58,46,57,46.8,56,46.8
			z"/>
		<path id="Shape_00000069372823335651902580000018369723930275730569_" d="M61.9,38c-0.7,0-1.1,0.5-1.1,1.1c0,0.6,0.5,1.1,1.1,1.1
			c0.6,0,1.1-0.5,1.1-1.1C63,38.5,62.5,38,61.9,38z M62.8,48.2v-7H61v7H62.8z"/>
		<path id="Path_00000121259479884697079570000013579484386474666937_" d="M67.8,46.7c-1.2,0-1.9-0.8-1.9-2c0-1.2,0.8-2,1.9-2
			c0.8,0,1.5,0.4,1.7,1.4l1.8-0.5C70.8,42,69.4,41,67.8,41c-2,0-3.7,1.5-3.7,3.7c0,2.2,1.7,3.7,3.7,3.7c1.7,0,3.1-1,3.5-2.6
			l-1.7-0.4C69.2,46.3,68.6,46.7,67.8,46.7z"/>
		<path id="Shape_00000034790698377887706490000008074371559742327208_" d="M79,44.6c-0.1-2.1-1.7-3.6-3.5-3.6c-2,0-3.6,1.5-3.6,3.7
			c0,2.2,1.6,3.7,3.6,3.7c1.5,0,2.8-0.7,3.4-2.2l-1.7-0.3c-0.5,0.9-1.2,0.9-1.7,0.9c-0.9,0-1.6-0.6-1.8-1.6H79V44.6z M75.4,42.6
			c0.7,0,1.4,0.4,1.7,1.3h-3.4C73.9,43,74.7,42.6,75.4,42.6z"/>
		<path id="Shape_00000122001285352773635500000014258265229774600613_" d="M89.8,44.6c-0.1-2.1-1.7-3.6-3.5-3.6
			c-2,0-3.6,1.5-3.6,3.7c0,2.2,1.6,3.7,3.6,3.7c1.5,0,2.8-0.7,3.4-2.2L88,45.9c-0.5,0.9-1.2,0.9-1.7,0.9c-0.9,0-1.6-0.6-1.8-1.6h5.3
			V44.6z M86.3,42.6c0.7,0,1.4,0.4,1.7,1.3h-3.4C84.8,43,85.6,42.6,86.3,42.6z"/>
		<polygon id="Path_00000003103720563591736660000001149941113914248091_" points="97.7,41.2 95.7,41.2 93.8,45.9 91.9,41.2 
			89.9,41.2 92.8,48.2 94.8,48.2 		"/>
		<path id="Shape_00000057118950239397021920000001005723558443781263_" d="M104.9,44.6c-0.1-2.1-1.7-3.6-3.5-3.6
			c-2,0-3.6,1.5-3.6,3.7c0,2.2,1.6,3.7,3.6,3.7c1.5,0,2.8-0.7,3.4-2.2l-1.7-0.3c-0.5,0.9-1.2,0.9-1.7,0.9c-0.9,0-1.6-0.6-1.8-1.6
			h5.3V44.6z M101.4,42.6c0.7,0,1.4,0.4,1.7,1.3h-3.4C99.9,43,100.7,42.6,101.4,42.6z"/>
		<path id="Path_00000097494574107625659200000005735060442386069170_" d="M110.1,41c-0.9,0-1.7,0.3-2.2,0.8v-0.6H106v7h1.8v-3.1
			c0-1.7,0.7-2.4,1.7-2.4c0.9,0,1.4,0.7,1.4,1.6v3.9h1.8v-4.3C112.9,42.2,111.7,41,110.1,41z"/>
		<path id="Path_00000065753714352723475100000008626385078990466458_" d="M118.9,46.3c-0.4,0.2-0.8,0.3-1.2,0.3c-0.6,0-1-0.4-1-1.2
			v-2.8h2.3v-1.5h-2.3v-2.1h-1.8v2.1h-1.5v1.5h1.5v2.9c0,1.9,1.1,2.8,2.7,2.8c0.6,0,1.1-0.1,1.8-0.5L118.9,46.3z"/>
		<path id="Path_00000077313018405153530100000018120858213733930166_" d="M119.6,46.3c0.2,1.5,1.6,2.1,3.1,2.1
			c1.8,0,3.1-0.8,3.1-2.3c0-0.9-0.6-1.7-1.8-2l-1.7-0.4c-0.5-0.1-0.6-0.4-0.6-0.6c0-0.3,0.2-0.7,1-0.7c0.8,0,1.3,0.4,1.3,1l1.8-0.3
			c-0.2-1.2-1.4-2.1-3-2.1c-1.8,0-2.9,1-2.9,2.3c0,1,0.7,1.7,2,2l1.4,0.3c0.6,0.1,0.8,0.4,0.8,0.6c0,0.4-0.4,0.7-1.1,0.7
			c-0.7,0-1.3-0.2-1.4-1L119.6,46.3z"/>
		<path id="Path_00000132796909877277341570000003035995055008811690_" d="M58.2,76.6c-2.2,0-3.6,1.2-3.6,2.9c0,1.8,1.3,2.4,2.5,2.7
			l2,0.4c0.8,0.2,1.1,0.5,1.1,1c0,0.7-0.6,1.2-1.7,1.2c-1.1,0-1.8-0.5-2.1-1.5l-2,0.4c0.2,1.9,2,2.8,3.9,2.8c2.2,0,3.7-1.1,3.7-3
			c0-1.5-0.9-2.4-2.5-2.7l-2-0.4c-0.7-0.1-0.9-0.5-0.9-1c0-0.6,0.6-1.2,1.5-1.2c0.9,0,1.7,0.6,1.8,1.5l1.9-0.4
			C61.5,77.6,60.1,76.6,58.2,76.6z"/>
		<path id="Shape_00000076578707923290762600000012097111723833702797_" d="M66.7,79c-2.1,0-3.8,1.5-3.8,3.7s1.7,3.7,3.8,3.7
			c2,0,3.8-1.5,3.8-3.7S68.7,79,66.7,79z M66.7,84.8c-1,0-2-0.8-2-2.1s1-2.1,2-2.1c1,0,2,0.8,2,2.1S67.7,84.8,66.7,84.8z"/>
		<path id="Path_00000163775688331445772280000009528638282968326562_" d="M73.7,79.2v-0.6c0-0.7,0.4-1,1-1c0.2,0,0.4,0,0.7,0.1
			l0.4-1.5c-0.4-0.2-0.8-0.3-1.2-0.3c-1.6,0-2.8,1-2.8,2.6v0.6h-1.1v1.5h1.1v5.5h1.8v-5.5h2.1v-1.5H73.7z"/>
		<path id="Path_00000007394627159624146200000006453252932664255395_" d="M81.3,84.3c-0.4,0.2-0.8,0.3-1.2,0.3c-0.6,0-1-0.4-1-1.2
			v-2.8h2.3v-1.5h-2.3v-2.1h-1.8v2.1h-1.5v1.5h1.5v2.9c0,1.9,1.1,2.8,2.7,2.8c0.6,0,1.1-0.1,1.8-0.5L81.3,84.3z"/>
		<path id="Shape_00000123433452726955144090000014982120648828701363_" d="M89.8,79c-1,0-1.7,0.3-2.3,0.8v-0.6h-1.8v9.4h1.8v-2.9
			c0.6,0.5,1.4,0.8,2.3,0.8c1.8,0,3.4-1.5,3.4-3.7S91.6,79,89.8,79z M89.5,84.8c-1,0-2-0.8-2-2.1s1-2.1,2-2.1c1.1,0,2,0.8,2,2.1
			S90.6,84.8,89.5,84.8z"/>
		<path id="Path_00000152956595823595583970000002231644507465742522_" d="M98.4,79c-0.9,0-1.7,0.3-2.2,0.8v-3.7h-1.8v10.1h1.8v-3.1
			c0-1.7,0.7-2.4,1.7-2.4c0.9,0,1.4,0.7,1.4,1.6v3.9h1.8v-4.3C101.2,80.2,100.1,79,98.4,79z"/>
		<path id="Shape_00000045609848050791114590000014468657368562918297_" d="M106,79c-2.1,0-3.8,1.5-3.8,3.7s1.7,3.7,3.8,3.7
			c2,0,3.8-1.5,3.8-3.7S108,79,106,79z M106,84.8c-1,0-2-0.8-2-2.1s1-2.1,2-2.1c1,0,2,0.8,2,2.1S106.9,84.8,106,84.8z"/>
		<path id="Path_00000116935881682607643240000008167065082075646135_" d="M114.9,79c-0.9,0-1.7,0.3-2.2,0.8v-0.6h-1.8v7h1.8v-3.1
			c0-1.7,0.7-2.4,1.7-2.4c0.9,0,1.4,0.7,1.4,1.6v3.9h1.8v-4.3C117.7,80.2,116.6,79,114.9,79z"/>
		<path id="Shape_00000144327362764660974570000003953910569318109107_" d="M125.8,82.6c-0.1-2.1-1.7-3.6-3.5-3.6
			c-2,0-3.6,1.5-3.6,3.7s1.6,3.7,3.6,3.7c1.5,0,2.8-0.7,3.4-2.2l-1.7-0.3c-0.5,0.9-1.2,0.9-1.7,0.9c-0.9,0-1.6-0.6-1.8-1.6h5.3V82.6
			z M122.3,80.6c0.7,0,1.4,0.4,1.7,1.3h-3.4C120.8,81,121.6,80.6,122.3,80.6z"/>
		<path id="Path_00000038379552578278566560000010680700633421866423_" d="M14.9,122.6c-1.7,0-3-1.3-3-3.1s1.3-3.1,3-3.1
			c1.3,0,2.4,0.7,2.8,2.3l1.8-0.5c-0.5-2.3-2.4-3.6-4.6-3.6c-2.8,0-4.9,2.2-4.9,4.9c0,2.8,2.2,4.9,4.9,4.9c2.3,0,4.2-1.3,4.6-3.8
			l-1.8-0.4C17.4,121.9,16.2,122.6,14.9,122.6z"/>
		<path id="Shape_00000137102138817453860290000017762815021561360015_" d="M27.8,117.2H26v0.6c-0.6-0.5-1.4-0.8-2.3-0.8
			c-1.8,0-3.4,1.5-3.4,3.7s1.7,3.7,3.4,3.7c1,0,1.7-0.3,2.3-0.8v0.5h1.8V117.2z M24,122.8c-1.1,0-2-0.8-2-2.1s0.8-2.1,2-2.1
			c1,0,2,0.8,2,2.1S25,122.8,24,122.8z"/>
		<polygon id="Path_00000129899824272776635220000002308615929209457798_" points="31.4,124.2 31.4,114.1 29.5,114.1 29.5,124.2 		
			"/>
		<polygon id="Path_00000056391354084613277490000002446452822534624940_" points="34.9,124.2 34.9,114.1 33.1,114.1 33.1,124.2 		
			"/>
		<path id="Path_00000104668805274360366610000014496179671544128912_" d="M44.3,122.3c-0.4,0.2-0.8,0.3-1.2,0.3c-0.6,0-1-0.4-1-1.2
			v-2.8h2.3v-1.5h-2.3v-2.1h-1.8v2.1h-1.5v1.5h1.5v2.9c0,1.9,1.1,2.8,2.7,2.8c0.6,0,1.1-0.1,1.8-0.5L44.3,122.3z"/>
		<path id="Path_00000103980359477462400130000009744543440972105110_" d="M49.9,117.1c-1.1,0-1.9,0.6-2.5,1.4v-1.3h-1.8v7h1.8v-2.3
			c0-1.9,0.8-3,2.5-3h0.4l0.1-1.8C50.2,117.1,50,117.1,49.9,117.1z"/>
		<path id="Shape_00000149340464855452221880000009389321015375253433_" d="M58.2,117.2h-1.8v0.6c-0.6-0.5-1.4-0.8-2.3-0.8
			c-1.8,0-3.4,1.5-3.4,3.7s1.7,3.7,3.4,3.7c1,0,1.7-0.3,2.3-0.8v0.5h1.8V117.2z M54.3,122.8c-1.1,0-2-0.8-2-2.1s0.8-2.1,2-2.1
			c1,0,2,0.8,2,2.1S55.3,122.8,54.3,122.8z"/>
		<path id="Path_00000170996104788064946520000012961525995725162666_" d="M63.9,117c-0.9,0-1.7,0.3-2.2,0.8v-0.6h-1.8v7h1.8v-3.1
			c0-1.7,0.7-2.4,1.7-2.4c0.9,0,1.4,0.7,1.4,1.6v3.9h1.8v-4.3C66.7,118.2,65.6,117,63.9,117z"/>
		<path id="Path_00000109733783222239351760000014795898202851181714_" d="M67.6,122.3c0.2,1.5,1.6,2.1,3.1,2.1
			c1.8,0,3.1-0.8,3.1-2.3c0-0.9-0.6-1.7-1.8-2l-1.7-0.4c-0.5-0.1-0.6-0.4-0.6-0.6c0-0.3,0.2-0.7,1-0.7c0.8,0,1.3,0.4,1.3,1l1.8-0.3
			c-0.2-1.2-1.4-2.1-3-2.1c-1.8,0-2.9,1-2.9,2.3c0,1,0.7,1.7,2,2l1.4,0.3c0.6,0.1,0.8,0.4,0.8,0.6c0,0.4-0.4,0.7-1.1,0.7
			c-0.7,0-1.3-0.2-1.4-1L67.6,122.3z"/>
		<path id="Path_00000047755771162066664980000007677907267696390292_" d="M78.1,122.7c-1.2,0-1.9-0.8-1.9-2c0-1.2,0.8-2,1.9-2
			c0.8,0,1.5,0.4,1.7,1.4l1.8-0.5c-0.5-1.6-1.9-2.6-3.5-2.6c-2,0-3.7,1.5-3.7,3.7s1.7,3.7,3.7,3.7c1.7,0,3.1-1,3.5-2.6l-1.7-0.4
			C79.6,122.3,79,122.7,78.1,122.7z"/>
		<path id="Path_00000083067656889858332590000008587441072936289159_" d="M87.1,117.1c-1.1,0-1.9,0.6-2.5,1.4v-1.3h-1.8v7h1.8v-2.3
			c0-1.9,0.8-3,2.5-3h0.4l0.1-1.8C87.4,117.1,87.3,117.1,87.1,117.1z"/>
		<path id="Shape_00000115488978901527883310000012679228830902064544_" d="M89.5,114c-0.7,0-1.1,0.5-1.1,1.1c0,0.6,0.5,1.1,1.1,1.1
			c0.6,0,1.1-0.5,1.1-1.1C90.6,114.5,90.2,114,89.5,114z M90.4,124.2v-7h-1.8v7H90.4z"/>
		<path id="Shape_00000056392295843299790940000007055426352107793290_" d="M96.4,117c-1,0-1.7,0.3-2.3,0.8v-0.6h-1.8v9.4h1.8v-2.9
			c0.6,0.5,1.4,0.8,2.3,0.8c1.8,0,3.4-1.5,3.4-3.7S98.2,117,96.4,117z M96.1,122.8c-1,0-2-0.8-2-2.1s1-2.1,2-2.1c1.1,0,2,0.8,2,2.1
			S97.2,122.8,96.1,122.8z"/>
		<path id="Path_00000087370932257320310020000010790392847927197317_" d="M105.5,122.3c-0.4,0.2-0.8,0.3-1.2,0.3
			c-0.6,0-1-0.4-1-1.2v-2.8h2.3v-1.5h-2.3v-2.1h-1.8v2.1h-1.5v1.5h1.5v2.9c0,1.9,1.1,2.8,2.7,2.8c0.6,0,1.1-0.1,1.8-0.5L105.5,122.3
			z"/>
		<path id="Shape_00000139253017655905212640000000293662875455585945_" d="M107.7,114c-0.7,0-1.1,0.5-1.1,1.1
			c0,0.6,0.5,1.1,1.1,1.1c0.6,0,1.1-0.5,1.1-1.1C108.9,114.5,108.4,114,107.7,114z M108.7,124.2v-7h-1.8v7H108.7z"/>
		<path id="Shape_00000106851752010581109880000015637097473346150036_" d="M113.7,117c-2.1,0-3.8,1.5-3.8,3.7s1.7,3.7,3.8,3.7
			c2,0,3.8-1.5,3.8-3.7S115.7,117,113.7,117z M113.7,122.8c-1,0-2-0.8-2-2.1s1-2.1,2-2.1c1,0,2,0.8,2,2.1S114.7,122.8,113.7,122.8z"
			/>
		<path id="Path_00000009584961516266940000000001047578794597913472_" d="M122.6,117c-0.9,0-1.7,0.3-2.2,0.8v-0.6h-1.8v7h1.8v-3.1
			c0-1.7,0.7-2.4,1.7-2.4c0.9,0,1.4,0.7,1.4,1.6v3.9h1.8v-4.3C125.4,118.2,124.3,117,122.6,117z"/>
	</g>
	<g id="Connects-your-existi" transform="translate(305.97, 111.3)">
		<path id="Path_00000065763679086877851950000005547925932621863092_" class="st5" d="M37.1,11.5c-2.4,0-4.3-1.9-4.3-4.5
			s1.9-4.4,4.3-4.4c1.9,0,3.5,1,4,3.3l2.6-0.7C43,1.9,40.3,0,37.1,0c-3.9,0-7,3.1-7,7c0,3.9,3.1,7,7,7c3.2,0,5.9-1.9,6.6-5.4L41,8.1
			C40.5,10.4,39,11.5,37.1,11.5z"/>
		<path id="Shape_00000060742711816565494690000017783540243312217744_" class="st5" d="M50.1,3.5c-3,0-5.4,2.1-5.4,5.2
			s2.5,5.2,5.4,5.2c2.9,0,5.4-2.1,5.4-5.2S53,3.5,50.1,3.5z M50.1,11.7c-1.4,0-2.9-1.1-2.9-3s1.4-3,2.9-3c1.4,0,2.8,1.1,2.8,3
			S51.5,11.7,50.1,11.7z"/>
		<path id="Path_00000115501562597723446520000002476780174865638791_" class="st5" d="M62.9,3.4c-1.3,0-2.4,0.4-3.1,1.2V3.7h-2.6
			v10h2.6V9.3c0-2.4,1-3.4,2.5-3.4c1.2,0,2,0.9,2,2.3v5.5h2.6V7.6C66.9,5.1,65.3,3.4,62.9,3.4z"/>
		<path id="Path_00000069377940779637153850000000074261128526560406_" class="st5" d="M74.8,3.4c-1.3,0-2.4,0.4-3.1,1.2V3.7H69v10
			h2.6V9.3c0-2.4,1-3.4,2.5-3.4c1.2,0,2,0.9,2,2.3v5.5h2.6V7.6C78.8,5.1,77.2,3.4,74.8,3.4z"/>
		<path id="Shape_00000068653739470267874970000016527742730626701445_" class="st5" d="M90.4,8.5c-0.1-3-2.4-5.1-5.1-5.1
			c-2.9,0-5.2,2.2-5.2,5.3s2.3,5.3,5.1,5.3c2.2,0,4-1,4.8-3.1l-2.4-0.5c-0.7,1.2-1.7,1.3-2.5,1.3c-1.2,0-2.2-0.9-2.5-2.3h7.6V8.5z
			 M85.3,5.7c1.1,0,2,0.6,2.4,1.8h-4.8C83.2,6.3,84.3,5.7,85.3,5.7z"/>
		<path id="Path_00000074411499532782790130000013307061750355019148_" class="st5" d="M96.5,11.6c-1.7,0-2.8-1.1-2.8-2.9
			c0-1.7,1.1-2.9,2.8-2.9c1.2,0,2.1,0.6,2.5,2l2.5-0.7c-0.7-2.2-2.7-3.7-5-3.7c-2.9,0-5.3,2.2-5.3,5.3s2.4,5.3,5.3,5.3
			c2.4,0,4.4-1.5,5-3.7l-2.4-0.6C98.6,11,97.7,11.6,96.5,11.6z"/>
		<path id="Path_00000170268655201160890500000006474513297976793510_" class="st5" d="M109.6,11.1c-0.5,0.3-1.2,0.5-1.7,0.5
			c-0.9,0-1.5-0.5-1.5-1.7V5.9h3.3V3.7h-3.3v-3h-2.6v3h-2.1v2.2h2.1V10c0,2.7,1.6,4,3.9,4c0.8,0,1.6-0.2,2.6-0.7L109.6,11.1z"/>
		<path id="Path_00000054956070159836644020000009920755241744255374_" class="st5" d="M110.6,11.1c0.3,2.1,2.3,2.9,4.5,2.9
			c2.6,0,4.4-1.1,4.4-3.3c0-1.3-0.9-2.4-2.6-2.8l-2.4-0.5c-0.8-0.2-0.9-0.5-0.9-0.8c0-0.5,0.3-1,1.4-1c1.1,0,1.8,0.6,1.9,1.4
			l2.5-0.5c-0.3-1.7-2-3-4.3-3c-2.5,0-4.1,1.4-4.1,3.3c0,1.4,1,2.5,2.8,2.8l2,0.4c0.9,0.2,1.1,0.5,1.1,0.9c0,0.6-0.6,1-1.6,1
			c-1,0-1.9-0.3-2.1-1.4L110.6,11.1z"/>
		<polygon id="Path_00000121270866698284290320000004806417890460834744_" class="st5" points="135.6,3.7 132.6,3.7 129.9,10.1 
			127.2,3.7 124.3,3.7 128.4,13.4 126.8,17.1 129.8,17.1 		"/>
		<path id="Shape_00000010998959346491262170000015620683599367210646_" class="st5" d="M141.1,3.5c-3,0-5.4,2.1-5.4,5.2
			s2.5,5.2,5.4,5.2c2.9,0,5.4-2.1,5.4-5.2S144.1,3.5,141.1,3.5z M141.1,11.7c-1.4,0-2.9-1.1-2.9-3s1.4-3,2.9-3c1.4,0,2.8,1.1,2.8,3
			S142.5,11.7,141.1,11.7z"/>
		<path id="Path_00000129912103309570869520000012782617171166856356_" class="st5" d="M157.6,3.7H155v4.4c0,2.4-1,3.4-2.5,3.4
			c-1.2,0-2-0.9-2-2.3V3.7h-2.6v6.1c0,2.5,1.6,4.2,4,4.2c1.3,0,2.4-0.4,3.1-1.2v0.9h2.6V3.7z"/>
		<path id="Path_00000019666058651883423380000003113710569447254171_" class="st5" d="M166.2,3.6c-1.6,0-2.8,0.8-3.6,2V3.7H160v10
			h2.6v-3.2c0-2.8,1.1-4.3,3.6-4.3h0.6l0.1-2.5C166.7,3.6,166.5,3.6,166.2,3.6z"/>
		<path id="Shape_00000129180231058961261360000004963371127984749227_" class="st5" d="M10.2,30.5c-0.1-3-2.4-5.1-5.1-5.1
			c-2.9,0-5.2,2.2-5.2,5.3S2.3,36,5.1,36c2.2,0,4-1,4.8-3.1l-2.4-0.5c-0.7,1.2-1.7,1.3-2.5,1.3c-1.2,0-2.2-0.9-2.5-2.3h7.6V30.5z
			 M5.2,27.7c1.1,0,2,0.6,2.4,1.8H2.7C3,28.3,4.2,27.7,5.2,27.7z"/>
		<polygon id="Path_00000140712354127304717220000007840843956371767230_" class="st5" points="17.9,30.8 21.2,25.7 18.1,25.7 
			15.9,29.1 13.8,25.7 10.6,25.7 14,30.8 10.6,35.7 13.8,35.7 15.9,32.5 18.1,35.7 21.2,35.7 		"/>
		<path id="Shape_00000062170452368485217060000017834224539720237723_" class="st5" d="M24.3,21.2c-0.9,0-1.6,0.7-1.6,1.6
			c0,0.9,0.7,1.5,1.6,1.5c0.9,0,1.6-0.7,1.6-1.5C25.9,21.9,25.2,21.2,24.3,21.2z M25.6,35.7v-10H23v10H25.6z"/>
		<path id="Path_00000101105161579796061920000010018952921782984087_" class="st5" d="M27.3,33.1c0.3,2.1,2.3,2.9,4.5,2.9
			c2.6,0,4.4-1.1,4.4-3.3c0-1.3-0.9-2.4-2.6-2.8l-2.4-0.5c-0.8-0.2-0.9-0.5-0.9-0.8c0-0.5,0.3-1,1.4-1c1.1,0,1.8,0.6,1.9,1.4
			l2.5-0.5c-0.3-1.7-2-3-4.3-3c-2.5,0-4.1,1.4-4.1,3.3c0,1.4,1,2.5,2.8,2.8l2,0.4c0.9,0.2,1.1,0.5,1.1,0.9c0,0.6-0.6,1-1.6,1
			c-1,0-1.9-0.3-2.1-1.4L27.3,33.1z"/>
		<path id="Path_00000004517693418146102350000005946222552796565665_" class="st5" d="M44.3,33.1c-0.5,0.3-1.2,0.5-1.7,0.5
			c-0.9,0-1.5-0.5-1.5-1.7v-3.9h3.3v-2.2h-3.3v-3h-2.6v3h-2.1v2.2h2.1V32c0,2.7,1.6,4,3.9,4c0.8,0,1.6-0.2,2.6-0.7L44.3,33.1z"/>
		<path id="Shape_00000119101441658221897080000012690187953813176964_" class="st5" d="M47.6,21.2c-0.9,0-1.6,0.7-1.6,1.6
			c0,0.9,0.7,1.5,1.6,1.5c0.9,0,1.6-0.7,1.6-1.5C49.2,21.9,48.5,21.2,47.6,21.2z M48.9,35.7v-10h-2.6v10H48.9z"/>
		<path id="Path_00000001622937575297807170000009172538881089528985_" class="st5" d="M57.2,25.4c-1.3,0-2.4,0.4-3.1,1.2v-0.9h-2.6
			v10h2.6v-4.4c0-2.4,1-3.4,2.5-3.4c1.2,0,2,0.9,2,2.3v5.5h2.6v-6.1C61.2,27.1,59.6,25.4,57.2,25.4z"/>
		<path id="Shape_00000116229569085336597500000011901280700063382933_" class="st5" d="M73.1,25.7h-2.5v0.6
			c-0.7-0.6-1.8-0.9-3.1-0.9c-2.5,0-4.8,2.1-4.8,4.8c0,2.7,2.3,4.9,4.8,4.9c1.4,0,2.4-0.3,3.1-0.9v0.2c0,1.7-1.1,2.8-2.8,2.8
			c-1.3,0-1.9-0.5-2.7-1.4l-2.1,1.6c0.9,1.4,2.5,2.2,4.9,2.2c3.2,0,5.3-1.7,5.3-4.8L73.1,25.7z M67.8,32.8c-1.6,0-2.8-1-2.8-2.6
			s1.2-2.6,2.8-2.6c1.4,0,2.7,1,2.7,2.6S69.2,32.8,67.8,32.8z"/>
		<path id="Path_00000178903272012980870410000005496057732521187774_" class="st5" d="M86.4,33.1c-0.5,0.3-1.2,0.5-1.7,0.5
			c-0.9,0-1.5-0.5-1.5-1.7v-3.9h3.3v-2.2h-3.3v-3h-2.6v3h-2.1v2.2h2.1V32c0,2.7,1.6,4,3.9,4c0.8,0,1.6-0.2,2.6-0.7L86.4,33.1z"/>
		<path id="Shape_00000126294588317843565430000001943339487542303395_" class="st5" d="M97.4,30.5c-0.1-3-2.4-5.1-5.1-5.1
			c-2.9,0-5.2,2.2-5.2,5.3s2.3,5.3,5.1,5.3c2.2,0,4-1,4.8-3.1l-2.4-0.5c-0.7,1.2-1.7,1.3-2.5,1.3c-1.2,0-2.2-0.9-2.5-2.3h7.6V30.5z
			 M92.4,27.7c1.1,0,2,0.6,2.4,1.8h-4.8C90.2,28.3,91.4,27.7,92.4,27.7z"/>
		<polygon id="Path_00000090273483884019608240000009767348636823078829_" class="st5" points="101.7,35.7 101.7,21.3 99,21.3 
			99,35.7 		"/>
		<path id="Shape_00000153678809774320931380000000219050392856770187_" class="st5" d="M113.5,30.5c-0.1-3-2.4-5.1-5.1-5.1
			c-2.9,0-5.2,2.2-5.2,5.3s2.3,5.3,5.1,5.3c2.2,0,4-1,4.8-3.1l-2.4-0.5c-0.7,1.2-1.7,1.3-2.5,1.3c-1.2,0-2.2-0.9-2.5-2.3h7.6V30.5z
			 M108.4,27.7c1.1,0,2,0.6,2.4,1.8H106C106.3,28.3,107.4,27.7,108.4,27.7z"/>
		<path id="Shape_00000056390412934167942600000017724420742545724071_" class="st5" d="M121,25.4c-1.4,0-2.5,0.4-3.3,1.1v-0.8h-2.6
			v13.4h2.6v-4.2c0.8,0.7,1.9,1.1,3.3,1.1c2.5,0,4.9-2.1,4.9-5.3S123.6,25.4,121,25.4z M120.6,33.7c-1.4,0-2.8-1.1-2.8-3
			c0-1.8,1.4-3,2.8-3c1.6,0,2.8,1.2,2.8,3C123.4,32.6,122.2,33.7,120.6,33.7z"/>
		<path id="Path_00000003071777746858744770000006325205942354050188_" class="st5" d="M133.3,25.4c-1.3,0-2.4,0.4-3.1,1.2v-5.3
			h-2.6v14.4h2.6v-4.4c0-2.4,1-3.4,2.5-3.4c1.2,0,2,0.9,2,2.3v5.5h2.6v-6.1C137.3,27.1,135.7,25.4,133.3,25.4z"/>
		<path id="Shape_00000177444162431062082770000008911890923267564453_" class="st5" d="M144.1,25.5c-3,0-5.4,2.1-5.4,5.2
			s2.5,5.2,5.4,5.2c2.9,0,5.4-2.1,5.4-5.2S147,25.5,144.1,25.5z M144.1,33.7c-1.4,0-2.9-1.1-2.9-3c0-1.9,1.4-3,2.9-3
			c1.4,0,2.8,1.1,2.8,3C146.9,32.6,145.5,33.7,144.1,33.7z"/>
		<path id="Path_00000179622754945829397980000013674296427977909382_" class="st5" d="M156.9,25.4c-1.3,0-2.4,0.4-3.1,1.2v-0.9
			h-2.6v10h2.6v-4.4c0-2.4,1-3.4,2.5-3.4c1.2,0,2,0.9,2,2.3v5.5h2.6v-6.1C160.9,27.1,159.3,25.4,156.9,25.4z"/>
		<polygon id="Path_00000138550745867785079450000016700880094739742909_" class="st5" points="172.7,25.7 169.8,25.7 167,32.1 
			164.4,25.7 161.4,25.7 165.6,35.4 164,39.1 166.9,39.1 		"/>
		<path id="Path_00000103265081864862580280000014071626398015781515_" class="st5" d="M184.9,33.1c-0.5,0.3-1.2,0.5-1.7,0.5
			c-0.9,0-1.5-0.5-1.5-1.7v-3.9h3.3v-2.2h-3.3v-3h-2.6v3H177v2.2h2.1V32c0,2.7,1.6,4,3.9,4c0.8,0,1.6-0.2,2.6-0.7L184.9,33.1z"/>
		<path id="Shape_00000013151340984379477290000005791158898628565162_" class="st5" d="M191.1,25.5c-3,0-5.4,2.1-5.4,5.2
			s2.5,5.2,5.4,5.2c2.9,0,5.4-2.1,5.4-5.2S194,25.5,191.1,25.5z M191.1,33.7c-1.4,0-2.9-1.1-2.9-3c0-1.9,1.4-3,2.9-3
			c1.4,0,2.8,1.1,2.8,3C193.9,32.6,192.5,33.7,191.1,33.7z"/>
		<path id="Path_00000174585427903504238980000001999177154066260916_" class="st5" d="M10.8,44c-3.1,0-5.1,1.7-5.1,4.1
			c0,2.6,1.9,3.5,3.5,3.8l2.8,0.5c1.2,0.2,1.6,0.7,1.6,1.5c0,1-0.8,1.7-2.4,1.7c-1.5,0-2.6-0.7-3-2.2L5.4,54c0.3,2.7,2.8,4,5.6,4
			c3.2,0,5.3-1.6,5.3-4.2c0-2.1-1.3-3.4-3.5-3.8l-2.9-0.6c-1-0.2-1.3-0.7-1.3-1.4c0-0.9,0.8-1.7,2.2-1.7c1.3,0,2.4,0.8,2.6,2.1
			l2.7-0.6C15.6,45.5,13.5,44,10.8,44z"/>
		<path id="Shape_00000056417986881801734840000006631523327617523374_" class="st5" d="M27.7,52.5c-0.1-3-2.4-5.1-5.1-5.1
			c-2.9,0-5.2,2.2-5.2,5.3s2.3,5.3,5.1,5.3c2.2,0,4-1,4.8-3.1l-2.4-0.5c-0.7,1.2-1.7,1.3-2.5,1.3c-1.2,0-2.2-0.9-2.5-2.3h7.6V52.5z
			 M22.7,49.7c1.1,0,2,0.6,2.4,1.8h-4.8C20.5,50.3,21.7,49.7,22.7,49.7z"/>
		<path id="Path_00000032649936855051815240000009263725787849822123_" class="st5" d="M35.5,47.6c-1.6,0-2.8,0.8-3.6,2v-1.8h-2.6
			v10H32v-3.2c0-2.8,1.1-4.3,3.6-4.3h0.6l0.1-2.5C36,47.6,35.8,47.6,35.5,47.6z"/>
		<polygon id="Path_00000035527088919199177220000016945052330365602740_" class="st5" points="47.4,47.7 44.6,47.7 41.9,54.5 
			39.2,47.7 36.3,47.7 40.5,57.7 43.3,57.7 		"/>
		<path id="Shape_00000074431214756189180200000014029285008838705808_" class="st5" d="M50.1,43.2c-0.9,0-1.6,0.7-1.6,1.6
			c0,0.9,0.7,1.5,1.6,1.5c0.9,0,1.6-0.7,1.6-1.5C51.7,43.9,51,43.2,50.1,43.2z M51.4,57.7v-10h-2.6v10H51.4z"/>
		<path id="Path_00000139261495541292149230000010063195215411350175_" class="st5" d="M58.5,55.6c-1.7,0-2.8-1.1-2.8-2.9
			c0-1.7,1.1-2.9,2.8-2.9c1.2,0,2.1,0.6,2.5,2l2.5-0.7c-0.7-2.2-2.7-3.7-5-3.7c-2.9,0-5.3,2.2-5.3,5.3s2.4,5.3,5.3,5.3
			c2.4,0,4.4-1.5,5-3.7L61,53.6C60.6,55,59.7,55.6,58.5,55.6z"/>
		<path id="Shape_00000149365691486452220370000001305648530617172659_" class="st5" d="M74.5,52.5c-0.1-3-2.4-5.1-5.1-5.1
			c-2.9,0-5.2,2.2-5.2,5.3s2.3,5.3,5.1,5.3c2.2,0,4-1,4.8-3.1l-2.4-0.5c-0.7,1.2-1.7,1.3-2.5,1.3c-1.2,0-2.2-0.9-2.5-2.3h7.6V52.5z
			 M69.4,49.7c1.1,0,2,0.6,2.4,1.8H67C67.3,50.3,68.4,49.7,69.4,49.7z"/>
		<path id="Path_00000120548720391811737300000013865946223658143362_" class="st5" d="M87,55.5c-2.4,0-4.3-1.9-4.3-4.5
			s1.9-4.4,4.3-4.4c1.9,0,3.5,1,4,3.3l2.6-0.7C92.9,45.9,90.2,44,87,44c-3.9,0-7,3.1-7,7c0,3.9,3.1,7,7,7c3.2,0,5.9-1.9,6.6-5.4
			L91,52.1C90.5,54.4,88.9,55.5,87,55.5z"/>
		<polygon id="Path_00000155122319279859532340000005854074897867607201_" class="st5" points="98.1,57.7 98.1,43.3 95.4,43.3 
			95.4,57.7 		"/>
		<path id="Shape_00000160889541342659943940000006581635628141292197_" class="st5" d="M105.1,47.5c-3,0-5.4,2.1-5.4,5.2
			s2.5,5.2,5.4,5.2c2.9,0,5.4-2.1,5.4-5.2S108,47.5,105.1,47.5z M105.1,55.7c-1.4,0-2.9-1.1-2.9-3s1.4-3,2.9-3c1.4,0,2.8,1.1,2.8,3
			S106.5,55.7,105.1,55.7z"/>
		<path id="Path_00000148658968686299705290000011914045207436135869_" class="st5" d="M121.6,47.7h-2.6v4.4c0,2.4-1,3.4-2.5,3.4
			c-1.2,0-2-0.9-2-2.3v-5.5h-2.6v6.1c0,2.5,1.6,4.2,4,4.2c1.3,0,2.4-0.4,3.1-1.2v0.9h2.6V47.7z"/>
		<path id="Shape_00000183942913161741679480000004062169888674027940_" class="st5" d="M134,43.3h-2.6v5.2
			c-0.8-0.7-1.9-1.1-3.3-1.1c-2.5,0-4.9,2.2-4.9,5.3s2.4,5.3,4.9,5.3c1.4,0,2.5-0.4,3.3-1.1v0.8h2.6V43.3z M128.6,55.7
			c-1.6,0-2.8-1.1-2.8-3s1.2-3,2.8-3c1.4,0,2.8,1.2,2.8,3S130,55.7,128.6,55.7z"/>
		<polygon id="Path_00000058582262292483669890000017918459967411038623_" class="st5" points="153.9,44.3 150.9,44.3 146.8,54.1 
			142.7,44.3 139.7,44.3 145.5,57.7 148.1,57.7 		"/>
		<path id="Shape_00000067219392542935645980000003261399615891297968_" class="st5" d="M158.5,47.5c-3,0-5.4,2.1-5.4,5.2
			s2.5,5.2,5.4,5.2c2.9,0,5.4-2.1,5.4-5.2S161.4,47.5,158.5,47.5z M158.5,55.7c-1.4,0-2.9-1.1-2.9-3s1.4-3,2.9-3
			c1.4,0,2.8,1.1,2.8,3S159.9,55.7,158.5,55.7z"/>
		<path id="Shape_00000051341162510839659050000015143061271946094725_" class="st5" d="M166.9,43.2c-0.9,0-1.6,0.7-1.6,1.6
			c0,0.9,0.7,1.5,1.6,1.5c0.9,0,1.6-0.7,1.6-1.5C168.6,43.9,167.9,43.2,166.9,43.2z M168.3,57.7v-10h-2.6v10H168.3z"/>
		<path id="Path_00000054983266111224999420000006654773437366098836_" class="st5" d="M175.4,55.6c-1.7,0-2.8-1.1-2.8-2.9
			c0-1.7,1.1-2.9,2.8-2.9c1.2,0,2.1,0.6,2.5,2l2.5-0.7c-0.7-2.2-2.7-3.7-5-3.7c-2.9,0-5.3,2.2-5.3,5.3s2.4,5.3,5.3,5.3
			c2.4,0,4.4-1.5,5-3.7l-2.4-0.6C177.4,55,176.5,55.6,175.4,55.6z"/>
		<path id="Shape_00000013912192576808176930000006189866980770201515_" class="st5" d="M191.4,52.5c-0.1-3-2.4-5.1-5.1-5.1
			c-2.9,0-5.2,2.2-5.2,5.3s2.3,5.3,5.1,5.3c2.2,0,4-1,4.8-3.1l-2.4-0.5c-0.7,1.2-1.7,1.3-2.5,1.3c-1.2,0-2.2-0.9-2.5-2.3h7.6V52.5z
			 M186.3,49.7c1.1,0,2,0.6,2.4,1.8h-4.8C184.2,50.3,185.3,49.7,186.3,49.7z"/>
	</g>
	<path id="Combined-Shape-Copy-2" class="st7" d="M401.5,68c9.1,0,16.5,7.4,16.5,16.5s-7.4,16.5-16.5,16.5S385,93.6,385,84.5
		S392.4,68,401.5,68z M408,77l-4,1.3v7.4c0,1.7-0.8,2.6-1.9,2.6c-1.3,0-2.1-0.9-2.1-2.6v-6l-4,1.4v4.7c0,3.8,2.4,6.2,6.1,6.2
		c3.6,0,5.9-2.4,5.9-6.2V77z"/>
	<g id="Group" transform="translate(522.4094, 161)">
		<path class="st5" d="M60,32.9c-0.5,0-1-0.2-1.4-0.6c-0.8-0.8-0.8-2-0.1-2.8l13.6-14.1L58.6,1.4c-0.8-0.8-0.7-2.1,0.1-2.8
			c0.8-0.8,2.1-0.7,2.8,0.1l16.2,16.9L61.4,32.3C61,32.7,60.5,32.9,60,32.9z"/>
		<path class="st5" d="M14.9,32.9c-0.5,0-1-0.2-1.4-0.6L-2.8,15.5L13.5-1.4c0.8-0.8,2-0.8,2.8-0.1c0.8,0.8,0.8,2,0.1,2.8L2.8,15.5
			l13.6,14.1c0.8,0.8,0.7,2.1-0.1,2.8C15.9,32.7,15.4,32.9,14.9,32.9z"/>
		<path class="st5" d="M2.1,17.5c-1.1,0-2-0.9-2-2c0-1.1,0.9-2,2-2L70.6,13c1.1,0,2,0.9,2,2s-0.9,2-2,2L2.1,17.5
			C2.1,17.5,2.1,17.5,2.1,17.5z"/>
	</g>
	<g id="Group-Copy" transform="translate(210.4094, 161)">
		<path class="st5" d="M60,32.9c-0.5,0-1-0.2-1.4-0.6c-0.8-0.8-0.8-2-0.1-2.8l13.6-14.1L58.6,1.4c-0.8-0.8-0.7-2.1,0.1-2.8
			c0.8-0.8,2.1-0.7,2.8,0.1l16.2,16.9L61.4,32.3C61,32.7,60.5,32.9,60,32.9z"/>
		<path class="st5" d="M14.9,32.9c-0.5,0-1-0.2-1.4-0.6L-2.8,15.5L13.5-1.4c0.8-0.8,2-0.8,2.8-0.1c0.8,0.8,0.8,2,0.1,2.8L2.8,15.5
			l13.6,14.1c0.8,0.8,0.7,2.1-0.1,2.8C15.9,32.7,15.4,32.9,14.9,32.9z"/>
		<path class="st5" d="M2.1,17.5c-1.1,0-2-0.9-2-2c0-1.1,0.9-2,2-2L70.6,13c1.1,0,2,0.9,2,2c0,1.1-0.9,2-2,2L2.1,17.5
			C2.1,17.5,2.1,17.5,2.1,17.5z"/>
	</g>
</g>
</svg>
